<svg width="40" height="40" viewBox="0 0 40 40" fill="none" xmlns="http://www.w3.org/2000/svg">
<g clip-path="url(#clip0_239_630)">
<path d="M3.85714 17.1434H6.71429C7.09317 17.1434 7.45653 17.2939 7.72444 17.5618C7.99235 17.8297 8.14286 18.1931 8.14286 18.572V25.7148C8.14286 26.0937 7.99235 26.4571 7.72444 26.725C7.45653 26.9929 7.09317 27.1434 6.71429 27.1434H3.85714C3.09938 27.1434 2.37266 26.8424 1.83684 26.3066C1.30102 25.7707 1 25.044 1 24.2863V20.0005C1 19.2428 1.30102 18.5161 1.83684 17.9802C2.37266 17.4444 3.09938 17.1434 3.85714 17.1434V17.1434Z" stroke="white" stroke-width="2" stroke-linecap="round" stroke-linejoin="round"/>
<path d="M35.2854 27.1434H32.4283C32.0494 27.1434 31.686 26.9929 31.4181 26.725C31.1502 26.4571 30.9997 26.0937 30.9997 25.7148V18.572C30.9997 18.1931 31.1502 17.8297 31.4181 17.5618C31.686 17.2939 32.0494 17.1434 32.4283 17.1434H35.2854C36.0432 17.1434 36.7699 17.4444 37.3057 17.9802C37.8416 18.5161 38.1426 19.2428 38.1426 20.0005V24.2863C38.1426 25.044 37.8416 25.7707 37.3057 26.3066C36.7699 26.8424 36.0432 27.1434 35.2854 27.1434V27.1434Z" stroke="white" stroke-width="2" stroke-linecap="round" stroke-linejoin="round"/>
<path d="M26.7148 35.0005C28.2304 35.0005 29.6838 34.3985 30.7555 33.3269C31.8271 32.2552 32.4291 30.8018 32.4291 29.2863V27.1434" stroke="white" stroke-width="2" stroke-linecap="round" stroke-linejoin="round"/>
<path d="M23.1423 31.4286C24.0895 31.4286 24.9979 31.8048 25.6677 32.4746C26.3375 33.1444 26.7137 34.0528 26.7137 35C26.7137 35.9472 26.3375 36.8556 25.6677 37.5254C24.9979 38.1951 24.0895 38.5714 23.1423 38.5714H18.8566C17.9094 38.5714 17.001 38.1951 16.3312 37.5254C15.6614 36.8556 15.2852 35.9472 15.2852 35C15.2852 34.0528 15.6614 33.1444 16.3312 32.4746C17.001 31.8048 17.9094 31.4286 18.8566 31.4286H23.1423Z" stroke="white" stroke-width="2" stroke-linecap="round" stroke-linejoin="round"/>
<path d="M6.71484 17.1428V14.2857C6.71484 10.8758 8.06943 7.60551 10.4806 5.19433C12.8918 2.78315 16.1621 1.42856 19.572 1.42856C22.9819 1.42856 26.2522 2.78315 28.6634 5.19433C31.0745 7.60551 32.4291 10.8758 32.4291 14.2857V17.1428" stroke="white" stroke-width="2" stroke-linecap="round" stroke-linejoin="round"/>
<path d="M15.2852 11.4286V15.7143" stroke="white" stroke-width="2" stroke-linecap="round" stroke-linejoin="round"/>
<path d="M23.8574 11.4286V15.7143" stroke="white" stroke-width="2" stroke-linecap="round" stroke-linejoin="round"/>
<path d="M15.2852 21.4286C15.2852 25.2286 23.8566 25.2286 23.8566 21.4286" stroke="white" stroke-width="2" stroke-linecap="round" stroke-linejoin="round"/>
</g>
<defs>
<clipPath id="clip0_239_630">
<rect width="40" height="40" fill="white"/>
</clipPath>
</defs>
</svg>
