<svg width="50" height="50" viewBox="0 0 50 50" fill="none" xmlns="http://www.w3.org/2000/svg">
<g clip-path="url(#clip0_146_2513)">
<path d="M49.28 32.8155C49.1557 32.8135 36.8112 32.6055 33.6367 32.6055C32.6333 32.6055 31.5922 32.4293 30.5426 32.082C29.4178 31.7097 28.662 30.6654 28.662 29.4835V28.774C29.5461 28.4438 30.3867 27.9921 31.1648 27.4238C31.4916 27.1854 31.563 26.7271 31.3244 26.4005C31.0858 26.0737 30.6276 26.0023 30.3011 26.2409C28.7566 27.3688 26.9258 27.9649 25.0068 27.9649H24.9932C20.0375 27.9649 16.0059 23.9328 16.0059 18.9767V15.7749C16.5145 14.6036 17.513 13.1229 18.1893 13.2146C22.4873 13.7917 25.7361 13.2639 27.8452 11.6458C28.2593 11.3282 28.5887 10.9961 28.8502 10.6751C29.4092 11.6169 30.3405 12.3069 31.0993 12.8692C31.2683 12.9943 31.4278 13.1126 31.5755 13.2273C33.1649 14.4627 33.8009 15.502 33.994 15.8737V18.9768C33.994 20.8607 33.418 22.664 32.3278 24.1915C32.093 24.5208 32.1693 24.9782 32.4986 25.2132C32.6276 25.3052 32.7763 25.3495 32.9234 25.3495C33.1521 25.3495 33.3773 25.2427 33.5203 25.0424C34.2087 24.0776 34.7193 23.0181 35.0438 21.901C35.3542 22.0151 35.6786 22.0743 36.0097 22.0743C37.7779 22.0743 39.0614 20.1913 39.0614 17.5968C39.0614 15.3891 38.0783 13.8891 36.515 13.6264C36.9068 12.4442 37.2482 10.909 37.2482 9.1459C37.2482 6.97041 36.6185 5.25938 35.3762 4.06045C33.8954 2.63115 31.9832 2.37725 31.1981 2.33535C30.507 1.64404 28.3669 0 23.649 0C20.8743 0 18.5614 0.601855 16.7744 1.78877C16.4375 2.0125 16.3458 2.46709 16.5695 2.804C16.7934 3.14102 17.2479 3.23271 17.5849 3.00889C19.1274 1.98438 21.1678 1.46484 23.649 1.46484C28.5666 1.46484 30.1974 3.39619 30.2758 3.49336C30.4164 3.69707 30.6413 3.79795 30.8903 3.79258C30.9101 3.7917 32.9554 3.7499 34.3691 5.12422C35.3076 6.03633 35.7834 7.38936 35.7834 9.1458C35.7834 11.3451 35.1761 13.1709 34.6991 14.2656C34.2482 13.668 33.5465 12.9038 32.4744 12.0705C32.3136 11.9455 32.1473 11.8224 31.9714 11.692C30.6469 10.7106 29.7181 9.92256 29.8308 8.71338C29.8672 8.32275 29.59 7.96885 29.2015 7.91572C28.8121 7.86221 28.452 8.12129 28.3822 8.50723C28.373 8.55195 28.1436 9.61406 26.8609 10.5528C25.6245 11.4581 23.1504 12.4027 18.3841 11.7627C16.8928 11.5621 15.7392 13.1364 15.1024 14.2938C14.8372 13.8073 14.5323 13.0133 14.334 11.7542C14.1485 10.5768 13.8997 7.56201 15.5906 5.00469C15.8138 4.66729 15.7211 4.21289 15.3837 3.98975C15.0463 3.7665 14.5919 3.85928 14.3688 4.19668C12.3947 7.18213 12.6749 10.6358 12.8869 11.9821C12.9903 12.6386 13.1225 13.1965 13.2695 13.6722C11.832 14.0319 10.9383 15.4923 10.9383 17.5967C10.9383 20.1911 12.2218 22.0742 13.99 22.0742C14.3217 22.0742 14.6466 22.0147 14.9575 21.9003C15.8821 25.0696 18.2702 27.6206 21.3378 28.7696V29.4835C21.3378 30.6655 20.582 31.7098 19.4573 32.082C18.4076 32.4294 17.3667 32.6055 16.3632 32.6055C13.1887 32.6055 0.844238 32.8135 0.719922 32.8155C0.32041 32.8224 0 33.1482 0 33.5479V39.1836C0 39.5882 0.32793 39.916 0.732422 39.916H9.92676C10.5788 39.916 11.1094 40.4466 11.1094 41.0985V44.6289H6.93359C6.5291 44.6289 6.20117 44.9567 6.20117 45.3613V49.2676C6.20117 49.6722 6.5291 50 6.93359 50H15.6393C16.0437 50 16.3717 49.6722 16.3717 49.2676C16.3717 48.863 16.0437 48.5352 15.6393 48.5352H7.66602V46.0938H9.66797V46.6084C9.66797 47.013 9.9959 47.3408 10.4004 47.3408C10.8049 47.3408 11.1328 47.013 11.1328 46.6084V46.0938H13.3179V46.6084C13.3179 47.013 13.6458 47.3408 14.0503 47.3408C14.4548 47.3408 14.7827 47.013 14.7827 46.6084V46.0938H16.9678V46.6084C16.9678 47.013 17.2957 47.3408 17.7002 47.3408C18.1047 47.3408 18.4326 47.013 18.4326 46.6084V46.0938H20.6177V46.6084C20.6177 47.013 20.9456 47.3408 21.3501 47.3408C21.7546 47.3408 22.0825 47.013 22.0825 46.6084V46.0938H24.2676V46.6084C24.2676 47.013 24.5955 47.3408 25 47.3408C25.4046 47.3408 25.7324 47.013 25.7324 46.6084V46.0938H27.9175V46.6084C27.9175 47.013 28.2453 47.3408 28.6499 47.3408C29.0545 47.3408 29.3823 47.013 29.3823 46.6084V46.0938H31.5674V46.6084C31.5674 47.013 31.8952 47.3408 32.2998 47.3408C32.7044 47.3408 33.0322 47.013 33.0322 46.6084V46.0938H35.2173V46.6084C35.2173 47.013 35.5451 47.3408 35.9497 47.3408C36.3543 47.3408 36.6821 47.013 36.6821 46.6084V46.0938H38.8672V46.6084C38.8672 47.013 39.195 47.3408 39.5996 47.3408C40.0042 47.3408 40.332 47.013 40.332 46.6084V46.0938H42.334V48.5352H18.7825C18.378 48.5352 18.0501 48.863 18.0501 49.2676C18.0501 49.6722 18.378 50 18.7825 50H43.0664C43.471 50 43.7988 49.6722 43.7988 49.2676V45.3613C43.7988 44.9567 43.471 44.6289 43.0664 44.6289H38.8906V41.0986C38.8906 40.4466 39.4212 39.9161 40.0731 39.9161H49.2675C49.6721 39.9161 49.9999 39.5883 49.9999 39.1837V33.548C50 33.1482 49.6796 32.8224 49.28 32.8155ZM36.0098 15.0498C37.1798 15.0498 37.5967 16.3654 37.5967 17.5967C37.5967 19.0775 37.0031 20.6094 36.0098 20.6094C35.757 20.6094 35.5373 20.5346 35.3563 20.4371C35.4232 19.9565 35.4589 19.4691 35.4589 18.9766V16.0198C35.563 15.8426 35.7457 15.5124 35.9563 15.0517C35.9742 15.051 35.9919 15.0498 36.0098 15.0498ZM13.9902 20.6094C12.9969 20.6094 12.4033 19.0775 12.4033 17.5967C12.4033 16.4172 12.7863 15.1612 13.847 15.0575C14.0953 15.5012 14.3415 15.7935 14.541 15.9821V18.9766C14.541 19.4723 14.5765 19.9598 14.6436 20.4372C14.4626 20.5347 14.2429 20.6094 13.9902 20.6094ZM48.5352 38.4512H40.0732C38.6135 38.4512 37.4259 39.6388 37.4259 41.0985V44.6289H12.5742V41.0986C12.5742 39.6389 11.3865 38.4513 9.92676 38.4513H1.46484V34.2683C4.1627 34.2237 13.6467 34.0704 16.3633 34.0704C17.5233 34.0704 18.7192 33.8693 19.9177 33.4728C21.6433 32.9016 22.8027 31.2983 22.8027 29.4835V29.1981C23.5094 29.3494 24.242 29.4298 24.9932 29.4298H25.0068C25.7514 29.4298 26.4841 29.3508 27.1973 29.1992V29.4835C27.1973 31.2984 28.3567 32.9016 30.0824 33.4728C31.2808 33.8694 32.4767 34.0704 33.6367 34.0704C36.3532 34.0704 45.8372 34.2237 48.5352 34.2683V38.4512Z" fill="#BF9C5C"/>
<path d="M26.1536 22.9398C25.4636 23.1325 24.5365 23.1325 23.8465 22.9398C23.457 22.8309 23.053 23.0587 22.9442 23.4483C22.8354 23.8378 23.063 24.242 23.4527 24.3506C23.9299 24.4838 24.4651 24.5505 25.0001 24.5505C25.5352 24.5505 26.0703 24.4838 26.5476 24.3506C26.9372 24.2419 27.1649 23.8378 27.0561 23.4483C26.9472 23.0587 26.5433 22.8311 26.1536 22.9398Z" fill="#133244"/>
<path d="M20.166 17.9688V18.5547C20.166 18.9593 20.4939 19.2871 20.8984 19.2871C21.3029 19.2871 21.6309 18.9593 21.6309 18.5547V17.9688C21.6309 17.5642 21.3029 17.2363 20.8984 17.2363C20.4939 17.2363 20.166 17.5642 20.166 17.9688Z" fill="#133244"/>
<path d="M28.3691 17.9688V18.5547C28.3691 18.9593 28.697 19.2871 29.1016 19.2871C29.5062 19.2871 29.834 18.9593 29.834 18.5547V17.9688C29.834 17.5642 29.5062 17.2363 29.1016 17.2363C28.697 17.2363 28.3691 17.5642 28.3691 17.9688Z" fill="#133244"/>
<path d="M17.4151 42.0484C16.4821 42.0484 15.5942 41.1307 15.3322 40.7789C15.0927 40.4528 14.6343 40.3827 14.3084 40.6222C13.9824 40.8616 13.9122 41.32 14.1518 41.646C14.2077 41.7223 15.5448 43.5133 17.4151 43.5133C17.8196 43.5133 18.1476 43.1854 18.1476 42.7809C18.1476 42.3763 17.8196 42.0484 17.4151 42.0484Z" fill="#133244"/>
<path d="M31.8525 42.7809C31.8525 43.1855 32.1804 43.5134 32.585 43.5134C34.4554 43.5134 35.7924 41.7223 35.8484 41.6461C36.0873 41.3209 36.0173 40.8646 35.6929 40.6247C35.3688 40.3847 34.9103 40.4534 34.6692 40.777C34.4059 41.1307 33.518 42.0486 32.585 42.0486C32.1804 42.0485 31.8525 42.3764 31.8525 42.7809Z" fill="#133244"/>
</g>
<defs>
<clipPath id="clip0_146_2513">
<rect width="50" height="50" fill="white"/>
</clipPath>
</defs>
</svg>
