<svg width="60" height="60" viewBox="0 0 60 60" fill="none" xmlns="http://www.w3.org/2000/svg">
<g clip-path="url(#clip0_239_1001)">
<path d="M57.9837 34.4699C58.975 33.1074 60 31.6984 60 30.0008C60 28.3032 58.975 26.8942 57.9837 25.5318C57.3159 24.614 56.6852 23.7473 56.4616 22.9105C56.2235 22.0194 56.3365 20.9195 56.4561 19.755C56.6252 18.1097 56.8002 16.4085 55.9845 14.9986C55.1551 13.5646 53.58 12.8632 52.0567 12.185C50.9996 11.7143 50.0013 11.2698 49.3666 10.6347C49.1004 10.3684 48.8447 10.0129 48.5854 9.54776C48.3489 9.12378 47.8132 8.9719 47.3897 9.20827C46.9657 9.44464 46.8137 9.97995 47.0501 10.4039C47.3898 11.0131 47.741 11.4952 48.1237 11.8777C48.9886 12.7431 50.1848 13.2757 51.3417 13.7909C52.6671 14.381 53.919 14.9384 54.4628 15.8788C54.9933 16.7957 54.8546 18.1459 54.7077 19.5755C54.577 20.8469 54.4418 22.1614 54.7636 23.3646C55.0717 24.5172 55.8295 25.5587 56.5624 26.566C57.4261 27.7533 58.2422 28.8749 58.2422 30.0008C58.2422 31.1268 57.4261 32.2484 56.5622 33.4358C55.8293 34.4431 55.0714 35.4848 54.7632 36.6373C54.4417 37.8406 54.5768 39.1551 54.7075 40.4264C54.8544 41.8559 54.9932 43.2061 54.4625 44.1232C53.9188 45.0635 52.6669 45.6209 51.3415 46.211C50.1846 46.7262 48.9884 47.2588 48.1239 48.1238C47.2584 48.9886 46.7258 50.1848 46.2107 51.3416C45.6205 52.667 45.063 53.9188 44.1226 54.4627C43.2057 54.9932 41.8552 54.8544 40.4258 54.7075C39.1543 54.5767 37.8401 54.4416 36.6367 54.7634C35.484 55.0715 34.4423 55.8293 33.435 56.5622C32.2475 57.4261 31.1259 58.2421 29.9999 58.2421C28.8739 58.2421 27.7522 57.4261 26.5648 56.5622C25.5573 55.8293 24.5157 55.0716 23.3631 54.7634C22.16 54.4418 20.8453 54.5768 19.5739 54.7075C18.1444 54.8543 16.794 54.9932 15.8769 54.4626C14.9367 53.9188 14.3793 52.667 13.7891 51.3416C13.2739 50.1848 12.7413 48.9886 11.8763 48.1241C11.0114 47.2588 9.81516 46.7261 8.65828 46.2109C7.33289 45.6208 6.08098 45.0634 5.53723 44.123C5.00672 43.2061 5.14535 41.8559 5.2923 40.4263C5.42297 39.1549 5.5582 37.8405 5.23641 36.6372C4.92832 35.4846 4.17047 34.4431 3.43758 33.4358C2.57391 32.2484 1.75781 31.1268 1.75781 30.0008C1.75781 28.8749 2.57391 27.7533 3.43781 26.5658C4.1707 25.5586 4.92855 24.5169 5.23676 23.3644C5.55832 22.1611 5.4232 20.8466 5.29254 19.5753C5.14559 18.1458 5.00684 16.7956 5.53746 15.8785C6.08121 14.9382 7.33313 14.3808 8.65852 13.7907C9.81539 13.2755 11.0116 12.7429 11.8761 11.8779C12.7416 11.0131 13.2742 9.81694 13.7893 8.65995C14.3795 7.33468 14.937 6.08276 15.8774 5.53901C16.7944 5.00851 18.1452 5.14714 19.575 5.29397C20.0359 5.34132 20.5069 5.38995 20.9764 5.41644C21.1491 6.00108 21.6896 6.42929 22.329 6.42929H24.1677V6.99144C22.5004 7.41296 20.8801 8.01671 19.3182 8.80526C18.8849 9.02405 18.711 9.55268 18.9298 9.98593C19.1487 10.4193 19.6774 10.5931 20.1104 10.3743C21.7448 9.54917 23.4486 8.9419 25.2067 8.55132C25.2237 8.54815 25.2403 8.54429 25.2568 8.54018C26.799 8.2014 28.3828 8.02866 30 8.02866C42.1158 8.02866 51.9727 17.8852 51.9727 30.0006C51.9727 39.6802 45.7686 48.1131 36.5345 50.9849C36.071 51.129 35.8121 51.6216 35.9563 52.0852C36.0734 52.4618 36.4205 52.7032 36.7952 52.7032C36.8816 52.7032 36.9696 52.6903 37.0564 52.6634C41.7866 51.1923 46.0338 48.1864 49.0157 44.1992C52.1 40.075 53.7304 35.1652 53.7304 30.0006C53.7304 18.9278 46.1065 9.60296 35.8323 6.99706V6.42917H37.671C38.3105 6.42917 38.8512 6.00073 39.0237 5.41585C39.4931 5.38936 39.9641 5.34108 40.425 5.29374C41.855 5.1469 43.2057 5.00827 44.1229 5.53878C44.5958 5.81229 45.0107 6.28667 45.4284 7.03175C45.5896 7.31921 45.8883 7.48093 46.1959 7.48093C46.3414 7.48093 46.489 7.44472 46.6249 7.36854C47.0483 7.13112 47.199 6.59558 46.9617 6.17206C46.383 5.13999 45.7605 4.45526 45.0029 4.0171C43.5928 3.20147 41.8914 3.37608 40.2455 3.54507C39.8449 3.5862 39.4575 3.62546 39.0819 3.65065V2.56655C39.0819 1.78866 38.449 1.15562 37.671 1.15562H35.8162C35.7204 0.503818 35.1592 0.00131836 34.4811 0.00131836H31.9089C31.6637 0.00131836 31.4343 0.0681152 31.2359 0.182959C30.3976 -0.0619629 29.6021 -0.0619629 28.7639 0.182959C28.5655 0.0681152 28.3361 0.00131836 28.0909 0.00131836H25.5186C24.8407 0.00131836 24.2794 0.503818 24.1835 1.15562H22.3289C21.5509 1.15562 20.918 1.78854 20.918 2.56655V3.65065C20.5424 3.62534 20.155 3.58608 19.7544 3.54507C18.109 3.37597 16.4072 3.20124 14.9972 4.01698C13.563 4.8462 12.8616 6.42132 12.1833 7.94452C11.7127 9.00144 11.268 9.99976 10.633 10.6344C9.99867 11.2692 9.00023 11.7137 7.94332 12.1844C6.42 12.8626 4.845 13.564 4.01566 14.9978C3.1998 16.4079 3.37465 18.1091 3.54387 19.7544C3.66352 20.9189 3.77648 22.019 3.53848 22.91C3.31477 23.7467 2.68406 24.6135 2.01633 25.5312C1.02504 26.8942 0 28.3032 0 30.0008C0 31.6985 1.02504 33.1075 2.01633 34.4699C2.68406 35.3877 3.31477 36.2544 3.53836 37.0912C3.77648 37.9823 3.66352 39.0822 3.54387 40.2467C3.37477 41.892 3.1998 43.5932 4.01555 45.0031C4.84488 46.4371 6.42 47.1385 7.94332 47.8167C9.00035 48.2874 9.99867 48.7319 10.6334 49.3671C11.2682 50.0015 11.7128 50.9998 12.1834 52.0567C12.8617 53.5799 13.563 55.155 14.9971 55.9841C16.4072 56.7999 18.1085 56.6251 19.7538 56.456C20.9184 56.3364 22.0184 56.2233 22.9095 56.4614C23.7463 56.6851 24.6131 57.3157 25.5309 57.9835C26.8934 58.9748 28.3023 59.9998 30 59.9998C31.6977 59.9998 33.1066 58.9748 34.4692 57.9836C35.387 57.3158 36.2538 56.6851 37.0907 56.4615C37.9818 56.2234 39.0816 56.3365 40.2463 56.4562C41.8914 56.6251 43.5928 56.8 45.0028 55.9844C46.437 55.1551 47.1384 53.58 47.8167 52.0568C48.2873 50.9999 48.732 50.0016 49.367 49.3669C50.0013 48.7321 50.9998 48.2876 52.0567 47.817C53.58 47.1387 55.155 46.4373 55.9843 45.0035C56.8002 43.5934 56.6254 41.8922 56.4561 40.2469C56.3365 39.0824 56.2235 37.9824 56.4615 37.0914C56.6852 36.2546 57.3159 35.3877 57.9837 34.4699ZM29.441 4.67159V2.9139H30.5589V4.67159H29.441ZM37.3242 4.67159H35.8324V2.9139H37.3242V4.67159ZM34.0746 6.62241C33.4955 6.52175 32.9093 6.44206 32.3168 6.3844V1.7596H34.0746V6.62241ZM25.9254 1.7596H27.6832V6.38323C27.0925 6.43983 26.5063 6.51694 25.9254 6.61702V1.7596ZM22.6758 2.9139H24.1676V4.67159H22.6758V2.9139Z" fill="#BF9C5C"/>
<path d="M32.9613 51.7752C31.9871 51.9064 30.9908 51.9728 30 51.9728C17.8842 51.9728 8.02734 42.1163 8.02734 30.0009C8.02734 23.0158 11.3982 16.3808 17.0443 12.2525C17.4362 11.966 17.5215 11.4161 17.235 11.0243C16.9485 10.6324 16.3986 10.5471 16.0069 10.8336C13.0549 12.9921 10.6061 15.8445 8.92512 19.0825C7.18781 22.4294 6.26953 26.2048 6.26953 30.001C6.26953 43.0856 16.915 53.7307 30 53.7307C31.0689 53.7307 32.1442 53.6588 33.1958 53.5173C33.6769 53.4525 34.0143 53.01 33.9496 52.5289C33.8848 52.0477 33.4416 51.7113 32.9613 51.7752Z" fill="#BF9C5C"/>
<path d="M50.2148 30.001C50.2148 18.855 41.1465 9.78687 30 9.78687C18.8535 9.78687 9.78516 18.8548 9.78516 30.001C9.78516 41.1472 18.8535 50.2151 30 50.2151C41.1465 50.2151 50.2148 41.1471 50.2148 30.001ZM30 48.4573C19.8227 48.4573 11.543 40.1778 11.543 30.0009C11.543 19.824 19.8227 11.5446 30 11.5446C40.1773 11.5446 48.457 19.8241 48.457 30.001C48.457 40.1779 40.1773 48.4573 30 48.4573Z" fill="#BF9C5C"/>
<path d="M40.5881 24.0294L35.4545 23.2833C35.1421 23.2379 34.872 23.0418 34.7323 22.7586L32.4365 18.1069C31.9753 17.1728 31.0418 16.5925 30 16.5925C28.9582 16.5925 28.0247 17.1728 27.5636 18.1069L25.2678 22.7586C25.1281 23.0418 24.8579 23.238 24.5455 23.2833L19.4119 24.0294C18.3809 24.1791 17.5404 24.8876 17.2185 25.8785C16.8966 26.8692 17.16 27.9364 17.9059 28.6635L21.6208 32.2844C21.8468 32.5047 21.9499 32.8221 21.8966 33.1334L21.0198 38.2461C20.8436 39.2728 21.2577 40.2911 22.1006 40.9034C22.9432 41.5157 24.0397 41.5952 24.962 41.1104L29.5538 38.6964C29.8333 38.5495 30.1669 38.5495 30.4464 38.6964L35.0381 41.1104C35.4393 41.3212 35.8732 41.4254 36.3051 41.4254C36.866 41.4254 37.4234 41.2496 37.8995 40.9035C38.7423 40.2912 39.1566 39.273 38.9803 38.2463L38.1035 33.1335C38.0502 32.8223 38.1533 32.5049 38.3794 32.2845L42.0941 28.6637C42.84 27.9365 43.1035 26.8694 42.7815 25.8786C42.4595 24.8876 41.619 24.179 40.5881 24.0294ZM40.8669 27.4048L37.1523 31.0256C36.5117 31.6498 36.2196 32.549 36.3709 33.4305L37.2477 38.5433C37.3108 38.9112 37.1681 39.262 36.8661 39.4814C36.5639 39.7008 36.1863 39.728 35.856 39.5544L31.2642 37.1405C30.8684 36.9324 30.4342 36.8284 29.9999 36.8284C29.5657 36.8284 29.1314 36.9324 28.7356 37.1404L24.1438 39.5544C23.8133 39.728 23.4358 39.7008 23.1336 39.4814C22.8317 39.262 22.689 38.9112 22.7521 38.5432L23.6289 33.4305C23.7802 32.5489 23.4881 31.6498 22.8476 31.0256L19.1329 27.4047C18.8656 27.1441 18.7747 26.7766 18.8902 26.4215C19.0055 26.0664 19.2951 25.8223 19.6644 25.7687L24.7981 25.0226C25.6832 24.8941 26.4479 24.3385 26.8439 23.5364L29.1397 18.8847C29.305 18.5499 29.6265 18.3501 29.9999 18.3501C30.3733 18.3501 30.6948 18.55 30.8601 18.8847L33.1559 23.5365C33.5519 24.3385 34.3166 24.8942 35.2017 25.0226L40.3354 25.7687C40.7047 25.8223 40.9943 26.0664 41.1096 26.4215C41.2251 26.7767 41.1344 27.1442 40.8669 27.4048Z" fill="#133244"/>
</g>
<defs>
<clipPath id="clip0_239_1001">
<rect width="60" height="60" fill="white"/>
</clipPath>
</defs>
</svg>
