<svg width="80" height="80" viewBox="0 0 80 80" fill="none" xmlns="http://www.w3.org/2000/svg">
<path d="M3.0638 52.4606C3.46974 53.3606 4.37286 53.9422 5.3649 53.9422H7.95896V60.2364C7.95896 60.8836 8.48349 61.4083 9.13083 61.4083C9.77818 61.4083 10.3027 60.8836 10.3027 60.2364V53.9422H12.0068C13.2599 53.9422 14.3091 53.0455 14.5021 51.81C14.7043 50.5148 15.2415 47.9897 16.5701 45.6283C16.8874 45.0642 16.6874 44.3497 16.1235 44.0323C15.5594 43.7152 14.8451 43.915 14.5276 44.4791C13.0182 47.1617 12.4129 49.9972 12.1865 51.4486C12.1732 51.5341 12.096 51.5984 12.0069 51.5984H5.3649C5.29271 51.5984 5.22818 51.5588 5.20036 51.4972C3.3574 47.4105 2.31661 42.5436 2.34458 38.1445C2.37286 33.6716 3.44005 29.7892 5.22333 27.3741C5.25146 27.3408 5.27771 27.3064 5.30146 27.2709C5.78974 26.6286 6.32974 26.0934 6.91599 25.6856C10.4477 23.2286 12.2169 23.6806 16.4916 24.7719C19.2955 25.4878 23.1355 26.4681 28.9335 26.92C37.4072 27.5787 41.7097 25.3214 44.5568 23.8275C45.1279 23.5278 45.6213 23.2691 46.0704 23.0752C49.1818 21.7316 52.4658 20.9611 55.0805 20.9611C57.9058 20.9611 60.5869 21.8594 62.8338 23.5588C63.3504 23.9492 64.0849 23.8473 64.4755 23.3309C64.8658 22.8147 64.764 22.0798 64.2477 21.6894C62.1351 20.0917 59.698 19.0952 57.1096 18.7528V17.6562H57.8127C58.8035 17.6562 59.6096 16.8502 59.6096 15.8594V7.42188C59.6096 6.43109 58.8035 5.625 57.8127 5.625H54.0627C53.0719 5.625 52.2658 6.43109 52.2658 7.42188V7.72625C35.9604 7.88891 24.0193 11.4103 16.8174 14.3773C10.5907 16.9425 6.79255 19.497 5.31411 20.5872C4.89411 20.3862 4.43255 20.2767 3.95333 20.2767C3.11271 20.2767 2.32021 20.605 1.71911 21.2036C0.490209 22.435 0.490209 24.4387 1.72005 25.6711L2.80849 26.7594C1.04146 29.573 0.0297398 33.5563 0.00083358 38.1295C-0.0291664 42.8539 1.08724 48.0773 3.0638 52.4606ZM54.6096 7.96875H57.2658V15.3125H54.6096V7.96875ZM17.8247 16.4972C24.8144 13.6319 36.4085 10.2311 52.2658 10.0698V15.8594C52.2658 16.8502 53.0719 17.6562 54.0627 17.6562H54.7658V18.6227C51.9001 18.6797 48.4152 19.5095 45.141 20.9233C44.6107 21.1523 44.0555 21.4436 43.4679 21.7519C40.7027 23.2027 36.9152 25.1898 29.1154 24.5831C23.5194 24.147 19.7926 23.1956 17.0715 22.5008C13.3551 21.552 10.878 20.9202 7.55771 22.572L7.14599 22.1603C8.7788 21.0122 12.3416 18.745 17.8247 16.4972ZM3.37802 24.0144C3.06021 23.6958 3.06021 23.1775 3.37536 22.8616C3.53161 22.7059 3.73677 22.6203 3.95318 22.6203C4.1713 22.6203 4.3763 22.7053 4.53068 22.8598L5.49365 23.8228C5.05896 24.1334 4.64646 24.4916 4.25724 24.8936L3.37802 24.0144Z" fill="#BF9C5C"/>
<path d="M55.0803 24.375C49.868 24.375 45.6272 28.6156 45.6272 33.8281C45.6272 39.0406 49.868 43.2812 55.0803 43.2812C60.2927 43.2812 64.5334 39.0406 64.5334 33.8281C64.5334 28.6156 60.2927 24.375 55.0803 24.375ZM55.0803 40.9375C51.1602 40.9375 47.9709 37.7483 47.9709 33.8281C47.9709 29.908 51.1602 26.7188 55.0803 26.7188C59.0005 26.7188 62.1897 29.908 62.1897 33.8281C62.1897 37.7483 59.0005 40.9375 55.0803 40.9375Z" fill="#133244"/>
<path d="M76.4844 53.9421C78.4228 53.9421 80 52.3651 80 50.4265V26.364C80 24.4254 78.4228 22.8484 76.4844 22.8484C74.5459 22.8484 72.9688 24.4254 72.9688 26.364V34.8796H70.2911V33.8281C70.2911 30.9187 69.4669 28.0907 67.9072 25.6495C67.5589 25.104 66.8342 24.9445 66.2887 25.2928C65.7434 25.6412 65.5836 26.3659 65.9322 26.9112C67.2506 28.975 67.9473 31.3667 67.9473 33.8281L67.9469 40.739C67.9469 40.7421 67.9473 40.745 67.9473 40.7481V62.6562H46.35C47.3573 59.911 48.9334 54.212 47.3952 48.4134C46.0538 43.3564 43.8541 40.4682 40.263 39.0493C36.9602 37.7442 32.8006 37.7482 27.0425 37.7535L25.9259 37.7542C22.8953 37.7542 20.2583 38.6009 18.0884 40.2709C17.5756 40.6656 17.4797 41.4014 17.8745 41.9143C18.2692 42.4271 19.0047 42.5234 19.518 42.1282C21.2684 40.781 23.4245 40.0979 25.9261 40.0979L27.0448 40.0973C38.1603 40.0857 42.7609 40.0826 45.1302 49.0143C46.6681 54.8118 44.6192 60.7181 43.8317 62.6562H3.51562C1.57719 62.6562 0 64.2332 0 66.1718C0 67.897 1.24938 69.3348 2.89062 69.6307V73.2031C2.89062 73.8503 3.41516 74.375 4.0625 74.375H44.9789C45.6262 74.375 46.1508 73.8503 46.1508 73.2031C46.1508 72.5559 45.6262 72.0312 44.9789 72.0312H5.23438V69.6875H74.7656V72.0312H50.037C49.3897 72.0312 48.8652 72.5559 48.8652 73.2031C48.8652 73.8503 49.3897 74.375 50.037 74.375H75.9375C76.5848 74.375 77.1094 73.8503 77.1094 73.2031V69.6307C78.7506 69.3349 80 67.897 80 66.1718C80 64.2332 78.4228 62.6562 76.4844 62.6562H70.2911V41.9109H72.9688V50.4265C72.9688 52.3651 74.5459 53.9421 76.4844 53.9421ZM77.6562 66.1718C77.6562 66.8181 77.1306 67.3437 76.4844 67.3437H3.51562C2.86937 67.3437 2.34375 66.8181 2.34375 66.1718C2.34375 65.5256 2.86937 65 3.51562 65H76.4844C77.1306 65 77.6562 65.5256 77.6562 66.1718ZM75.3125 26.364C75.3125 25.7178 75.8381 25.1921 76.4844 25.1921C77.1306 25.1921 77.6562 25.7178 77.6562 26.364V50.4265C77.6562 51.0728 77.1306 51.5984 76.4844 51.5984C75.8381 51.5984 75.3125 51.0728 75.3125 50.4265V26.364ZM70.2911 39.5671V37.2234H72.9688V39.5671H70.2911Z" fill="#BF9C5C"/>
</svg>
