<svg width="60" height="60" viewBox="0 0 60 60" fill="none" xmlns="http://www.w3.org/2000/svg">
<path d="M10.0781 42.1236C10.5636 42.1236 10.957 41.7302 10.957 41.2447V18.1711C10.957 13.8682 14.4577 10.3676 18.7605 10.3676H21.6817C22.1624 12.2434 23.2608 15.4138 25.3079 16.1317C25.7128 16.2737 26.1122 16.3343 26.5001 16.3343C27.9657 16.3341 29.259 15.4665 30 14.8424C30.7409 15.4666 32.0343 16.3343 33.5 16.3343C33.8878 16.3343 34.2875 16.2735 34.6922 16.1317C36.7393 15.4139 37.8377 12.2435 38.3184 10.3676H41.2396C42.7317 10.3676 44.1819 10.7899 45.4332 11.5889C45.5797 11.6825 45.7434 11.7272 45.9054 11.7272C46.1954 11.7272 46.4793 11.5838 46.6469 11.3211C46.9082 10.912 46.7883 10.3686 46.3792 10.1074C44.8448 9.12773 43.0676 8.60988 41.2396 8.60988H37.8127C37.7584 8.56172 37.7014 8.5159 37.6404 8.47453L34.0052 6.00949C34.0052 6.00949 34.0051 6.00949 34.0051 6.00961C33.8646 5.91422 33.6949 5.85844 33.5122 5.85844H32.6368V5.30965C33.0593 4.75383 33.3107 4.06113 33.3107 3.31066C33.3105 1.48512 31.8254 0 30 0C28.1746 0 26.6895 1.48512 26.6895 3.31055C26.6895 4.06102 26.9408 4.75359 27.3633 5.30953V5.85832H26.4879C26.3052 5.85832 26.1355 5.91422 25.9949 6.00961V6.00949L22.3596 8.47453C22.2986 8.51602 22.2416 8.56172 22.1873 8.60988H18.7605C13.4884 8.60988 9.19922 12.8991 9.19922 18.1712V41.245C9.19922 41.7302 9.59262 42.1236 10.0781 42.1236ZM25.8895 14.4729C24.9891 14.1572 24.005 12.3669 23.3782 9.90762L25.6943 8.33695C25.9052 9.85441 26.569 12.0971 28.5796 13.7217C27.8925 14.2379 26.8487 14.8085 25.8895 14.4729ZM30 12.5886C29.1027 11.9549 28.5068 11.1626 28.114 10.3676H31.886C31.4933 11.1625 30.8973 11.9549 30 12.5886ZM30.8789 8.60977H29.1211V6.50168C29.4012 6.57891 29.6957 6.62109 30 6.62109C30.3043 6.62109 30.5988 6.57902 30.8789 6.50168V8.60977ZM34.1105 14.4729C33.1516 14.8092 32.1073 14.2378 31.4203 13.7217C33.4309 12.0971 34.0948 9.85441 34.3057 8.33695L36.6218 9.90762C35.9948 12.367 35.0109 14.1572 34.1105 14.4729ZM30 1.75781C30.8562 1.75781 31.5527 2.45438 31.5527 3.31055C31.5527 4.16672 30.8562 4.86328 30 4.86328C29.1438 4.86328 28.4473 4.16672 28.4473 3.31055C28.4473 2.45438 29.1438 1.75781 30 1.75781Z" fill="#BF9C5C"/>
<path d="M49.2941 13.017C49.0322 12.6083 48.4884 12.4894 48.0799 12.7515C47.6713 13.0134 47.5523 13.557 47.8144 13.9656C48.618 15.2194 49.043 16.6735 49.043 18.1709V49.9123H43.0664V20.1216C43.0664 19.6361 42.673 19.2427 42.1875 19.2427C41.702 19.2427 41.3086 19.6361 41.3086 20.1216V49.9124H18.6914V20.1216C18.6914 19.6361 18.298 19.2427 17.8125 19.2427C17.327 19.2427 16.9336 19.6361 16.9336 20.1216V49.9124H10.957V44.9729C10.957 44.4874 10.5636 44.094 10.0781 44.094C9.59262 44.094 9.19922 44.4874 9.19922 44.9729V50.7913C9.19922 51.2769 9.59262 51.6703 10.0781 51.6703H17.8011C17.8049 51.6703 17.8086 51.6708 17.8125 51.6708C17.8164 51.6708 17.82 51.6704 17.8239 51.6703H25.6055V59.121C25.6055 59.6065 25.9989 59.9999 26.4844 59.9999H33.5156C34.0011 59.9999 34.3945 59.6065 34.3945 59.121V56.2556C34.3945 55.7701 34.0011 55.3767 33.5156 55.3767C33.0301 55.3767 32.6367 55.7701 32.6367 56.2556V58.2421H27.3633V51.6708H32.6367V52.5056C32.6367 52.9911 33.0301 53.3845 33.5156 53.3845C34.0011 53.3845 34.3945 52.9911 34.3945 52.5056V51.6703H42.1761C42.1799 51.6703 42.1836 51.6708 42.1875 51.6708C42.1914 51.6708 42.195 51.6704 42.1989 51.6703H49.9219C50.4074 51.6703 50.8008 51.2769 50.8008 50.7913V18.171C50.8008 16.3367 50.2798 14.5545 49.2941 13.017Z" fill="#BF9C5C"/>
<path d="M30 19.3823C28.4815 19.3823 27.2461 20.6177 27.2461 22.1362C27.2461 23.6547 28.4815 24.8901 30 24.8901C31.5185 24.8901 32.7539 23.6547 32.7539 22.1362C32.7539 20.6177 31.5185 19.3823 30 19.3823ZM30 23.1323C29.4507 23.1323 29.0039 22.6855 29.0039 22.1362C29.0039 21.587 29.4507 21.1401 30 21.1401C30.5493 21.1401 30.9961 21.587 30.9961 22.1362C30.9961 22.6855 30.5493 23.1323 30 23.1323Z" fill="#133244"/>
<path d="M30 29.0686C28.4815 29.0686 27.2461 30.304 27.2461 31.8225C27.2461 33.341 28.4815 34.5764 30 34.5764C31.5185 34.5764 32.7539 33.341 32.7539 31.8225C32.7539 30.304 31.5185 29.0686 30 29.0686ZM30 32.8186C29.4507 32.8186 29.0039 32.3718 29.0039 31.8225C29.0039 31.2733 29.4507 30.8264 30 30.8264C30.5493 30.8264 30.9961 31.2733 30.9961 31.8225C30.9961 32.3718 30.5493 32.8186 30 32.8186Z" fill="#133244"/>
<path d="M30 38.7549C28.4815 38.7549 27.2461 39.9903 27.2461 41.5088C27.2461 43.0273 28.4815 44.2627 30 44.2627C31.5185 44.2627 32.7539 43.0273 32.7539 41.5088C32.7539 39.9903 31.5185 38.7549 30 38.7549ZM30 42.5049C29.4507 42.5049 29.0039 42.058 29.0039 41.5088C29.0039 40.9595 29.4507 40.5127 30 40.5127C30.5493 40.5127 30.9961 40.9595 30.9961 41.5088C30.9961 42.058 30.5493 42.5049 30 42.5049Z" fill="#133244"/>
</svg>
