<svg width="50" height="50" viewBox="0 0 50 50" fill="none" xmlns="http://www.w3.org/2000/svg">
<path d="M50 38.8672C50 37.6556 49.0144 36.6699 47.8027 36.6699H45.7031V25.7812H47.5123C48.3455 25.7812 49.0234 25.1033 49.0234 24.2701V17.3315C49.0234 16.4982 48.3455 15.8203 47.5123 15.8203H45.7031V13.7695C45.7031 9.48867 42.2203 6.00586 37.9395 6.00586H34.3804C33.9759 6.00586 33.6479 6.33379 33.6479 6.73828C33.6479 7.14277 33.9759 7.4707 34.3804 7.4707H37.9395C41.4126 7.4707 44.2383 10.2964 44.2383 13.7695V36.6699H30.6641V23.7305C30.6641 22.2496 29.4594 21.0449 27.9785 21.0449H20.1444C18.9575 21.0449 17.9259 21.8072 17.5772 22.9419L16.085 27.7998C15.9266 28.3155 15.4576 28.6621 14.9181 28.6621H6.98242C6.30928 28.6621 5.76172 28.1146 5.76172 27.4414V25.2441C5.76172 24.8396 5.43379 24.5117 5.0293 24.5117C4.6248 24.5117 4.29688 24.8396 4.29688 25.2441V27.4414C4.29688 28.9223 5.50156 30.127 6.98242 30.127H8.33955V33.5449C8.33955 33.9494 8.66748 34.2773 9.07197 34.2773C9.47647 34.2773 9.80439 33.9494 9.80439 33.5449V30.127H14.9181C16.105 30.127 17.1367 29.3646 17.4853 28.23L18.9775 23.3721C19.136 22.8563 19.6049 22.5098 20.1444 22.5098H27.9785C28.6517 22.5098 29.1992 23.0573 29.1992 23.7305V36.6699H2.19727C0.985645 36.6699 0 37.6556 0 38.8672C0 39.9454 0.780859 40.844 1.80664 41.029V43.2617C1.80664 43.6662 2.13457 43.9941 2.53906 43.9941H31.2554C31.6599 43.9941 31.9878 43.6662 31.9878 43.2617C31.9878 42.8572 31.6599 42.5293 31.2554 42.5293H3.27148V41.0645H46.7285V42.5293H34.3985C33.994 42.5293 33.6661 42.8572 33.6661 43.2617C33.6661 43.6662 33.994 43.9941 34.3985 43.9941H47.4609C47.8654 43.9941 48.1934 43.6662 48.1934 43.2617V41.029C49.2191 40.844 50 39.9454 50 38.8672ZM47.5123 17.2852C47.5378 17.2852 47.5586 17.306 47.5586 17.3315V24.2701C47.5586 24.2956 47.5378 24.3164 47.5123 24.3164H45.7031V17.2852H47.5123ZM47.8027 39.5996H2.19727C1.79336 39.5996 1.46484 39.2711 1.46484 38.8672C1.46484 38.4633 1.79336 38.1348 2.19727 38.1348H47.8027C48.2066 38.1348 48.5352 38.4633 48.5352 38.8672C48.5352 39.2711 48.2066 39.5996 47.8027 39.5996Z" fill="#BF9C5C"/>
<path d="M5.0293 22.8027C5.43379 22.8027 5.76172 22.4748 5.76172 22.0703V11.4258C5.76172 9.24492 7.53594 7.4707 9.7168 7.4707H10.2051V20.7031C10.2051 21.9147 11.1907 22.9004 12.4023 22.9004C13.614 22.9004 14.5996 21.9147 14.5996 20.7031V7.4707H17.0898V8.98438C17.0898 9.81904 17.7688 10.498 18.6035 10.498H28.7598C29.5944 10.498 30.2734 9.81904 30.2734 8.98438V7.4707H31.2372C31.6417 7.4707 31.9696 7.14277 31.9696 6.73828C31.9696 6.33379 31.6417 6.00586 31.2372 6.00586H9.7168C6.72822 6.00586 4.29688 8.43721 4.29688 11.4258V22.0703C4.29688 22.4748 4.6248 22.8027 5.0293 22.8027ZM28.8086 8.98438C28.8086 9.01133 28.7867 9.0332 28.7598 9.0332H18.6035C18.5766 9.0332 18.5547 9.01133 18.5547 8.98438V7.51953H28.8086V8.98438ZM13.1348 7.4707V20.7031C13.1348 21.107 12.8063 21.4355 12.4023 21.4355C11.9984 21.4355 11.6699 21.107 11.6699 20.7031V7.4707H13.1348Z" fill="#BF9C5C"/>
<path d="M41.4062 15.5762C41.4062 13.2876 39.5444 11.4258 37.2559 11.4258C34.9673 11.4258 33.1055 13.2876 33.1055 15.5762C33.1055 17.8647 34.9673 19.7266 37.2559 19.7266C39.5444 19.7266 41.4062 17.8647 41.4062 15.5762ZM37.2559 18.2617C35.775 18.2617 34.5703 17.057 34.5703 15.5762C34.5703 14.0953 35.775 12.8906 37.2559 12.8906C38.7367 12.8906 39.9414 14.0953 39.9414 15.5762C39.9414 17.057 38.7367 18.2617 37.2559 18.2617Z" fill="#133244"/>
<path d="M34.7656 26.0254C34.7656 27.3985 35.8827 28.5156 37.2559 28.5156C38.629 28.5156 39.7461 27.3985 39.7461 26.0254C39.7461 24.6522 38.629 23.5352 37.2559 23.5352C35.8827 23.5352 34.7656 24.6522 34.7656 26.0254ZM38.2812 26.0254C38.2812 26.5908 37.8213 27.0508 37.2559 27.0508C36.6904 27.0508 36.2305 26.5908 36.2305 26.0254C36.2305 25.46 36.6904 25 37.2559 25C37.8213 25 38.2812 25.46 38.2812 26.0254Z" fill="#133244"/>
</svg>
