<svg width="45" height="45" viewBox="0 0 45 45" fill="none" xmlns="http://www.w3.org/2000/svg">
<path d="M15.5768 20.7694H9.51903C8.79783 20.7694 8.1847 20.5171 7.67984 20.0122C7.17527 19.5073 6.92265 18.8944 6.92265 18.173V17.308C6.92265 15.3968 7.59886 13.7654 8.95118 12.413C10.3034 11.0612 11.9352 10.385 13.8461 10.385H15.5768C16.0455 10.385 16.451 10.2136 16.7937 9.8712C17.1362 9.5286 17.3074 9.1231 17.3074 8.65433V5.19247C17.3074 4.7238 17.1361 4.31792 16.7937 3.97531C16.4511 3.63318 16.0456 3.46155 15.5768 3.46155H13.8461C11.971 3.46155 10.182 3.82698 8.47805 4.5568C6.77432 5.2871 5.30065 6.27428 4.0565 7.51844C2.81244 8.76202 1.82555 10.2358 1.09535 11.9397C0.365148 13.6435 0 15.4329 0 17.3079V36.3459C0 37.789 0.504576 39.0143 1.5142 40.0243C2.52392 41.0337 3.75017 41.5384 5.19239 41.5384H15.5775C17.0196 41.5384 18.2454 41.0337 19.2553 40.0243C20.2647 39.0143 20.7696 37.789 20.7696 36.3459V25.9618C20.7696 24.519 20.2647 23.2937 19.2546 22.2836C18.2453 21.2742 17.0189 20.7694 15.5768 20.7694Z" fill="white"/>
<path d="M43.4865 22.2836C42.4772 21.2742 41.2512 20.7694 39.8087 20.7694H33.751C33.0302 20.7694 32.4165 20.5171 31.9125 20.0122C31.4075 19.5073 31.1553 18.8944 31.1553 18.173V17.308C31.1553 15.3968 31.8315 13.7654 33.1832 12.413C34.5349 11.0612 36.1666 10.385 38.0785 10.385H39.8088C40.2776 10.385 40.6833 10.2136 41.0258 9.8712C41.368 9.5286 41.5399 9.1231 41.5399 8.65433V5.19247C41.5399 4.7238 41.3681 4.31792 41.0258 3.97531C40.6834 3.63318 40.2777 3.46155 39.8088 3.46155H38.0785C36.2023 3.46155 34.4137 3.82698 32.7093 4.5568C31.0059 5.2871 29.5327 6.27428 28.2885 7.51844C27.0444 8.76202 26.057 10.2358 25.3271 11.9397C24.5971 13.6435 24.2314 15.4329 24.2314 17.3079V36.3459C24.2314 37.789 24.7365 39.0143 25.7458 40.0243C26.7553 41.0337 27.9812 41.5384 29.4236 41.5384H39.8081C41.2506 41.5384 42.4765 41.0337 43.4858 40.0243C44.4959 39.0143 45 37.789 45 36.3459V25.9618C45 24.5189 44.4959 23.2937 43.4865 22.2836Z" fill="white"/>
</svg>
