<svg width="60" height="60" viewBox="0 0 60 60" fill="none" xmlns="http://www.w3.org/2000/svg">
<path d="M2.29767 39.3455C2.60212 40.0205 3.27947 40.4566 4.02349 40.4566H5.96904V45.1773C5.96904 45.6627 6.36243 46.0562 6.84794 46.0562C7.33345 46.0562 7.72685 45.6627 7.72685 45.1773V40.4566H9.0049C9.94474 40.4566 10.7317 39.7841 10.8764 38.8575C11.028 37.8861 11.4309 35.9923 12.4274 34.2212C12.6654 33.7982 12.5154 33.2623 12.0924 33.0243C11.6694 32.7864 11.1336 32.9362 10.8955 33.3593C9.76345 35.3713 9.30947 37.4979 9.13966 38.5864C9.1297 38.6505 9.07181 38.6988 9.00501 38.6988H4.02349C3.96935 38.6988 3.92095 38.6691 3.90009 38.6229C2.51786 35.5578 1.73728 31.9077 1.75825 28.6084C1.77947 25.2537 2.57986 22.3419 3.91732 20.5305C3.93841 20.5056 3.9581 20.4798 3.97591 20.4532C4.34212 19.9714 4.74712 19.5701 5.18681 19.2642C7.8356 17.4214 9.16251 17.7605 12.3685 18.5789C14.4715 19.1159 17.3515 19.8511 21.6999 20.19C28.0552 20.6841 31.2821 18.9911 33.4174 17.8706C33.8457 17.6459 34.2158 17.4518 34.5526 17.3064C36.8861 16.2987 39.3492 15.7208 41.3102 15.7208C43.4292 15.7208 45.44 16.3945 47.1252 17.6691C47.5126 17.9619 48.0635 17.8855 48.3565 17.4982C48.6492 17.111 48.5728 16.5599 48.1856 16.267C46.6011 15.0688 44.7733 14.3214 42.832 14.0646V13.2422H43.3593C44.1024 13.2422 44.707 12.6376 44.707 11.8945V5.56641C44.707 4.82332 44.1024 4.21875 43.3593 4.21875H40.5468C39.8038 4.21875 39.1992 4.82332 39.1992 5.56641V5.79469C26.9701 5.91668 18.0143 8.55773 12.6129 10.783C7.94282 12.7069 5.09423 14.6228 3.9854 15.4404C3.6704 15.2897 3.32423 15.2075 2.96482 15.2075C2.33435 15.2075 1.73997 15.4537 1.28915 15.9027C0.367473 16.8262 0.367473 18.3291 1.28986 19.2533L2.10618 20.0695C0.780911 22.1797 0.0221218 25.1672 0.000442079 28.5971C-0.0220579 32.1404 0.815247 36.058 2.29767 39.3455ZM40.957 5.97656H42.9492V11.4844H40.957V5.97656ZM13.3684 12.3729C18.6106 10.2239 27.3062 7.67332 39.1992 7.55238V11.8945C39.1992 12.6376 39.8038 13.2422 40.5468 13.2422H41.0742V13.967C38.9249 14.0098 36.3112 14.6321 33.8556 15.6925C33.4578 15.8643 33.0415 16.0827 32.6007 16.3139C30.5268 17.402 27.6862 18.8924 21.8363 18.4373C17.6394 18.1103 14.8442 17.3967 12.8034 16.8756C10.0161 16.164 8.15833 15.6901 5.6681 16.929L5.35931 16.6202C6.58392 15.7591 9.25603 14.0587 13.3684 12.3729ZM2.53333 18.0108C2.29497 17.7718 2.29497 17.3831 2.53134 17.1462C2.64853 17.0295 2.8024 16.9652 2.9647 16.9652C3.12829 16.9652 3.28204 17.029 3.39783 17.1449L4.12005 17.8671C3.79404 18.1001 3.48466 18.3687 3.19275 18.6702L2.53333 18.0108Z" fill="#BF9C5C"/>
<path d="M41.311 18.2812C37.4018 18.2812 34.2212 21.4617 34.2212 25.3711C34.2212 29.2805 37.4018 32.4609 41.311 32.4609C45.2203 32.4609 48.4009 29.2805 48.4009 25.3711C48.4009 21.4617 45.2203 18.2812 41.311 18.2812ZM41.311 30.7031C38.3709 30.7031 35.979 28.3112 35.979 25.3711C35.979 22.431 38.3709 20.0391 41.311 20.0391C44.2512 20.0391 46.6431 22.431 46.6431 25.3711C46.6431 28.3112 44.2512 30.7031 41.311 30.7031Z" fill="#133244"/>
<path d="M57.3633 40.4567C58.8171 40.4567 60 39.2739 60 37.8199V19.7731C60 18.3191 58.8171 17.1364 57.3633 17.1364C55.9095 17.1364 54.7266 18.3191 54.7266 19.7731V26.1598H52.7183V25.3711C52.7183 23.1891 52.1002 21.0681 50.9304 19.2372C50.6692 18.8281 50.1257 18.7084 49.7166 18.9696C49.3076 19.231 49.1877 19.7745 49.4491 20.1835C50.438 21.7313 50.9605 23.5251 50.9605 25.3711L50.9602 30.5543C50.9602 30.5567 50.9605 30.5588 50.9605 30.5611V46.9922H34.7625C35.518 44.9333 36.7001 40.659 35.5464 36.3101C34.5403 32.5173 32.8905 30.3512 30.1972 29.2871C27.7201 28.3082 24.6005 28.3112 20.2819 28.3152L19.4445 28.3157C17.1715 28.3157 15.1937 28.9507 13.5663 30.2032C13.1817 30.4992 13.1098 31.0511 13.4059 31.4358C13.7019 31.8204 14.2535 31.8926 14.6385 31.5962C15.9513 30.5858 17.5684 30.0735 19.4446 30.0735L20.2836 30.073C28.6202 30.0644 32.0707 30.062 33.8476 36.7608C35.0011 41.1089 33.4644 45.5386 32.8738 46.9922H2.63672C1.18289 46.9922 0 48.175 0 49.6289C0 50.9228 0.937031 52.0012 2.16797 52.2231V54.9024C2.16797 55.3878 2.56137 55.7813 3.04688 55.7813H33.7342C34.2197 55.7813 34.6131 55.3878 34.6131 54.9024C34.6131 54.417 34.2197 54.0235 33.7342 54.0235H3.92578V52.2656H56.0742V54.0235H37.5278C37.0423 54.0235 36.6489 54.417 36.6489 54.9024C36.6489 55.3878 37.0423 55.7813 37.5278 55.7813H56.9531C57.4386 55.7813 57.832 55.3878 57.832 54.9024V52.2231C59.063 52.0013 60 50.9228 60 49.6289C60 48.175 58.8171 46.9922 57.3633 46.9922H52.7183V31.4332H54.7266V37.8199C54.7266 39.2739 55.9095 40.4567 57.3633 40.4567ZM58.2422 49.6289C58.2422 50.1136 57.848 50.5078 57.3633 50.5078H2.63672C2.15203 50.5078 1.75781 50.1136 1.75781 49.6289C1.75781 49.1442 2.15203 48.75 2.63672 48.75H57.3633C57.848 48.75 58.2422 49.1442 58.2422 49.6289ZM56.4844 19.7731C56.4844 19.2884 56.8786 18.8942 57.3633 18.8942C57.848 18.8942 58.2422 19.2884 58.2422 19.7731V37.8199C58.2422 38.3046 57.848 38.6989 57.3633 38.6989C56.8786 38.6989 56.4844 38.3046 56.4844 37.8199V19.7731ZM52.7183 29.6754V27.9176H54.7266V29.6754H52.7183Z" fill="#BF9C5C"/>
</svg>
