<svg width="80" height="80" viewBox="0 0 80 80" fill="none" xmlns="http://www.w3.org/2000/svg">
<g clip-path="url(#clip0_170_31276)">
<path d="M77.3116 45.9602C78.6333 44.1434 80 42.2648 80 40.0014C80 37.7378 78.6333 35.8592 77.3116 34.0427C76.4212 32.8189 75.5803 31.6633 75.2822 30.5477C74.9647 29.3595 75.1153 27.893 75.2748 26.3403C75.5003 24.1466 75.7336 21.8783 74.6459 19.9984C73.5402 18.0864 71.44 17.1513 69.4089 16.2469C67.9995 15.6194 66.6684 15.0267 65.8222 14.1798C65.4672 13.8248 65.1263 13.3508 64.7805 12.7306C64.4652 12.1653 63.7509 11.9628 63.1862 12.278C62.6209 12.5931 62.4183 13.3069 62.7334 13.8722C63.1864 14.6844 63.6547 15.3272 64.165 15.8372C65.3181 16.9911 66.9131 17.7013 68.4556 18.3881C70.2228 19.175 71.892 19.9181 72.617 21.172C73.3244 22.3945 73.1395 24.1948 72.9436 26.1009C72.7694 27.7961 72.5891 29.5488 73.0181 31.1531C73.4289 32.6898 74.4394 34.0786 75.4166 35.4216C76.5681 37.0047 77.6562 38.5002 77.6562 40.0014C77.6562 41.5027 76.5681 42.9981 75.4163 44.5814C74.4391 45.9244 73.4286 47.3133 73.0177 48.85C72.5889 50.4544 72.7691 52.207 72.9433 53.9022C73.1392 55.8081 73.3242 57.6084 72.6167 58.8312C71.8917 60.085 70.2225 60.8281 68.4553 61.615C66.9128 62.3019 65.3178 63.012 64.1652 64.1653C63.0113 65.3184 62.3011 66.9133 61.6142 68.4558C60.8273 70.223 60.0841 71.892 58.8302 72.6172C57.6077 73.3245 55.8069 73.1395 53.9011 72.9436C52.2058 72.7692 50.4534 72.5891 48.8489 73.0181C47.312 73.4289 45.9231 74.4394 44.58 75.4166C42.9967 76.5684 41.5012 77.6564 39.9998 77.6564C38.4986 77.6564 37.003 76.5684 35.4197 75.4166C34.0764 74.4394 32.6877 73.4291 31.1508 73.0181C29.5467 72.5894 27.7938 72.7694 26.0986 72.9436C24.1925 73.1394 22.392 73.3245 21.1692 72.617C19.9156 71.892 19.1723 70.223 18.3855 68.4558C17.6986 66.9133 16.9884 65.3184 15.835 64.1658C14.6819 63.012 13.0869 62.3017 11.5444 61.6148C9.77719 60.828 8.10797 60.0848 7.38297 58.8309C6.67562 57.6084 6.86047 55.8081 7.05641 53.902C7.23062 52.2069 7.41094 50.4542 6.98187 48.8498C6.57109 47.3131 5.56063 45.9244 4.58344 44.5814C3.43187 42.9981 2.34375 41.5027 2.34375 40.0014C2.34375 38.5002 3.43187 37.0047 4.58375 35.4214C5.56094 34.0784 6.57141 32.6895 6.98234 31.1528C7.41109 29.5484 7.23094 27.7958 7.05672 26.1006C6.86078 24.1947 6.67578 22.3944 7.38328 21.1716C8.10828 19.9178 9.7775 19.1747 11.5447 18.3878C13.0872 17.7009 14.6822 16.9908 15.8348 15.8375C16.9888 14.6844 17.6989 13.0895 18.3858 11.5469C19.1727 9.77985 19.9159 8.11063 21.1698 7.38563C22.3925 6.67828 24.1936 6.86313 26.1 7.05891C26.7145 7.12203 27.3425 7.18688 27.9686 7.22219C28.1987 8.00172 28.9195 8.57266 29.772 8.57266H32.2236V9.32219C30.0005 9.88422 27.8402 10.6892 25.7577 11.7406C25.1798 12.0323 24.948 12.7372 25.2397 13.3148C25.5316 13.8927 26.2366 14.1244 26.8139 13.8327C28.9931 12.7325 31.2648 11.9228 33.6089 11.402C33.6316 11.3978 33.6537 11.3927 33.6758 11.3872C35.732 10.9355 37.8438 10.7052 40 10.7052C56.1544 10.7052 69.2969 23.8472 69.2969 40.0011C69.2969 52.9072 61.0248 64.1511 48.7127 67.9802C48.0947 68.1723 47.7495 68.8291 47.9417 69.4472C48.0978 69.9494 48.5606 70.2712 49.0603 70.2712C49.1755 70.2712 49.2928 70.2541 49.4086 70.2181C55.7155 68.2567 61.3784 64.2487 65.3542 58.9325C69.4667 53.4336 71.6405 46.8872 71.6405 40.0011C71.6405 25.2373 61.4753 12.8042 47.7764 9.32969V8.5725H50.228C51.0806 8.5725 51.8016 8.00125 52.0316 7.22141C52.6575 7.1861 53.2855 7.12172 53.9 7.0586C55.8067 6.86281 57.6077 6.67797 58.8305 7.38531C59.4611 7.75 60.0142 8.3825 60.5713 9.37594C60.7861 9.75922 61.1844 9.97484 61.5945 9.97484C61.7886 9.97484 61.9853 9.92656 62.1666 9.825C62.7311 9.50844 62.932 8.79438 62.6156 8.22969C61.8441 6.85359 61.0141 5.94063 60.0039 5.35641C58.1237 4.26891 55.8552 4.50172 53.6606 4.72703C53.1266 4.78188 52.61 4.83422 52.1092 4.86781V3.42234C52.1092 2.38516 51.2653 1.5411 50.228 1.5411H47.755C47.6272 0.672033 46.8789 0.00203247 45.9748 0.00203247H42.5452C42.2183 0.00203247 41.9123 0.0910949 41.6478 0.24422C40.5302 -0.0823425 39.4695 -0.0823425 38.3519 0.24422C38.0873 0.0910949 37.7814 0.00203247 37.4545 0.00203247H34.0248C33.1209 0.00203247 32.3725 0.672033 32.2447 1.5411H29.7719C28.7345 1.5411 27.8906 2.385 27.8906 3.42234V4.86781C27.3898 4.83406 26.8733 4.78172 26.3392 4.72703C24.1453 4.50156 21.8762 4.2686 19.9963 5.35625C18.0841 6.46188 17.1488 8.56203 16.2444 10.593C15.6169 12.0022 15.0241 13.3333 14.1773 14.1795C13.3316 15.0259 12.0003 15.6186 10.5911 16.2461C8.56 17.1505 6.46 18.0856 5.35422 19.9973C4.26641 21.8775 4.49953 24.1458 4.72516 26.3395C4.88469 27.8922 5.03531 29.3589 4.71797 30.5469C4.41969 31.6625 3.57875 32.8183 2.68844 34.0419C1.36672 35.8592 0 37.7378 0 40.0014C0 42.265 1.36672 44.1436 2.68844 45.9602C3.57875 47.1839 4.41969 48.3395 4.71781 49.4552C5.03531 50.6433 4.88469 52.1098 4.72516 53.6625C4.49969 55.8563 4.26641 58.1245 5.35406 60.0044C6.45984 61.9164 8.56 62.8516 10.5911 63.7559C12.0005 64.3834 13.3316 64.9761 14.1778 65.8231C15.0242 66.6689 15.617 68 16.2445 69.4092C17.1489 71.4402 18.0841 73.5403 19.9961 74.6458C21.8762 75.7334 24.1447 75.5005 26.3384 75.275C27.8912 75.1155 29.3578 74.9647 30.5459 75.2822C31.6617 75.5805 32.8175 76.4212 34.0412 77.3116C35.8578 78.6333 37.7364 80 40 80C42.2636 80 44.1422 78.6333 45.9589 77.3117C47.1827 76.4214 48.3384 75.5805 49.4542 75.2823C50.6423 74.9648 52.1087 75.1156 53.6617 75.2752C55.8552 75.5005 58.1237 75.7336 60.0037 74.6461C61.9159 73.5405 62.8513 71.4403 63.7556 69.4094C64.3831 68.0002 64.9759 66.6691 65.8227 65.8228C66.6684 64.9764 67.9997 64.3838 69.4089 63.7562C71.44 62.8519 73.54 61.9167 74.6458 60.005C75.7336 58.1248 75.5005 55.8566 75.2748 53.6628C75.1153 52.1102 74.9647 50.6434 75.282 49.4555C75.5803 48.3397 76.4212 47.1839 77.3116 45.9602ZM39.2547 6.22906V3.88547H40.7452V6.22906H39.2547ZM49.7656 6.22906H47.7766V3.88547H49.7656V6.22906ZM45.4328 8.83016C44.6606 8.69594 43.8791 8.58969 43.0891 8.51281V2.34641H45.4328V8.83016ZM34.5672 2.34641H36.9109V8.51125C36.1233 8.58672 35.3417 8.68953 34.5672 8.82297V2.34641ZM30.2344 3.88547H32.2234V6.22906H30.2344V3.88547Z" fill="#BF9C5C"/>
<path d="M43.9484 69.0336C42.6495 69.2086 41.3211 69.2972 40 69.2972C23.8456 69.2972 10.7031 56.1552 10.7031 40.0013C10.7031 30.6878 15.1977 21.8411 22.7258 16.3367C23.2483 15.9547 23.362 15.2216 22.98 14.6991C22.598 14.1766 21.8648 14.0628 21.3425 14.4448C17.4066 17.3228 14.1414 21.1261 11.9002 25.4434C9.58375 29.9059 8.35938 34.9398 8.35938 40.0014C8.35938 57.4475 22.5533 71.6409 40 71.6409C41.4252 71.6409 42.8589 71.5452 44.2611 71.3564C44.9025 71.27 45.3523 70.68 45.2661 70.0386C45.1797 69.397 44.5887 68.9484 43.9484 69.0336Z" fill="#BF9C5C"/>
<path d="M66.9531 40.0014C66.9531 25.14 54.862 13.0492 40 13.0492C25.138 13.0492 13.0469 25.1399 13.0469 40.0014C13.0469 54.863 25.138 66.9536 40 66.9536C54.862 66.9536 66.9531 54.8628 66.9531 40.0014ZM40 64.6098C26.4303 64.6098 15.3906 53.5705 15.3906 40.0013C15.3906 26.432 26.4303 15.3928 40 15.3928C53.5697 15.3928 64.6094 26.4322 64.6094 40.0014C64.6094 53.5706 53.5697 64.6098 40 64.6098Z" fill="#BF9C5C"/>
<path d="M54.1176 32.0392L47.2728 31.0445C46.8562 30.9839 46.496 30.7225 46.3098 30.3449L43.2487 24.1427C42.6339 22.8972 41.3892 22.1234 40.0001 22.1234C38.611 22.1234 37.3664 22.8972 36.7515 24.1427L33.6904 30.3449C33.5042 30.7225 33.144 30.9841 32.7274 31.0445L25.8826 32.0392C24.5079 32.2389 23.3873 33.1836 22.9581 34.5047C22.5289 35.8256 22.8801 37.2486 23.8746 38.2181L28.8278 43.0459C29.1292 43.3397 29.2667 43.7628 29.1956 44.178L28.0265 50.9949C27.7915 52.3638 28.3437 53.7216 29.4676 54.538C30.591 55.3544 32.0531 55.4603 33.2828 54.8139L39.4051 51.5953C39.7778 51.3994 40.2226 51.3994 40.5953 51.5953L46.7176 54.8139C47.2525 55.095 47.831 55.2339 48.4068 55.2339C49.1548 55.2339 49.8979 54.9995 50.5328 54.5381C51.6565 53.7217 52.2089 52.3641 51.9739 50.9952L50.8048 44.1781C50.7337 43.7631 50.8712 43.34 51.1726 43.0461L56.1256 38.2183C57.1201 37.2488 57.4714 35.8259 57.0421 34.5048C56.6128 33.1836 55.4921 32.2388 54.1176 32.0392ZM54.4893 36.5399L49.5365 41.3675C48.6823 42.1999 48.2929 43.3988 48.4946 44.5741L49.6637 51.3911C49.7478 51.8817 49.5576 52.3494 49.155 52.6419C48.752 52.9345 48.2485 52.9708 47.8081 52.7392L41.6857 49.5208C41.1579 49.2433 40.579 49.1045 39.9999 49.1045C39.421 49.1045 38.842 49.2433 38.3142 49.5206L32.1918 52.7392C31.7512 52.9708 31.2478 52.9345 30.8449 52.6419C30.4423 52.3494 30.2521 51.8817 30.3362 51.3909L31.5053 44.5741C31.707 43.3986 31.3176 42.1999 30.4635 41.3675L25.5106 36.5397C25.1542 36.1922 25.0331 35.7022 25.187 35.2288C25.3407 34.7553 25.7268 34.4299 26.2193 34.3583L33.0642 33.3636C34.2443 33.1922 35.264 32.4514 35.792 31.3819L38.8531 25.1797C39.0734 24.7333 39.5021 24.4669 39.9999 24.4669C40.4978 24.4669 40.9265 24.7334 41.1468 25.1797L44.2079 31.382C44.7359 32.4514 45.7556 33.1923 46.9357 33.3636L53.7806 34.3583C54.2731 34.4299 54.6592 34.7553 54.8129 35.2288C54.9668 35.7024 54.8459 36.1923 54.4893 36.5399Z" fill="#133244"/>
</g>
<defs>
<clipPath id="clip0_170_31276">
<rect width="80" height="80" fill="white"/>
</clipPath>
</defs>
</svg>
