<svg width="80" height="80" viewBox="0 0 80 80" fill="none" xmlns="http://www.w3.org/2000/svg">
<path d="M80 62.1875C80 60.2489 78.423 58.6719 76.4844 58.6719H73.125V41.25H76.0197C77.3528 41.25 78.4375 40.1653 78.4375 38.8322V27.7305C78.4375 26.3972 77.3528 25.3125 76.0197 25.3125H73.125V22.0312C73.125 15.1819 67.5525 9.60938 60.7031 9.60938H55.0086C54.3614 9.60938 53.8367 10.1341 53.8367 10.7812C53.8367 11.4284 54.3614 11.9531 55.0086 11.9531H60.7031C66.2602 11.9531 70.7812 16.4742 70.7812 22.0312V58.6719H49.0625V37.9688C49.0625 35.5994 47.135 33.6719 44.7656 33.6719H32.2311C30.332 33.6719 28.6814 34.8916 28.1236 36.707L25.7359 44.4797C25.4825 45.3048 24.7322 45.8594 23.8689 45.8594H11.1719C10.0948 45.8594 9.21875 44.9833 9.21875 43.9062V40.3906C9.21875 39.7434 8.69406 39.2188 8.04688 39.2188C7.39969 39.2188 6.875 39.7434 6.875 40.3906V43.9062C6.875 46.2756 8.8025 48.2031 11.1719 48.2031H13.3433V53.6719C13.3433 54.3191 13.868 54.8438 14.5152 54.8438C15.1623 54.8438 15.687 54.3191 15.687 53.6719V48.2031H23.8689C25.768 48.2031 27.4187 46.9833 27.9764 45.168L30.3641 37.3953C30.6177 36.57 31.3678 36.0156 32.2311 36.0156H44.7656C45.8427 36.0156 46.7188 36.8917 46.7188 37.9688V58.6719H3.51562C1.57703 58.6719 0 60.2489 0 62.1875C0 63.9127 1.24938 65.3505 2.89062 65.6464V69.2188C2.89062 69.8659 3.41531 70.3906 4.0625 70.3906H50.0086C50.6558 70.3906 51.1805 69.8659 51.1805 69.2188C51.1805 68.5716 50.6558 68.0469 50.0086 68.0469H5.23438V65.7031H74.7656V68.0469H55.0377C54.3905 68.0469 53.8658 68.5716 53.8658 69.2188C53.8658 69.8659 54.3905 70.3906 55.0377 70.3906H75.9375C76.5847 70.3906 77.1094 69.8659 77.1094 69.2188V65.6464C78.7506 65.3505 80 63.9127 80 62.1875ZM76.0197 27.6562C76.0605 27.6562 76.0938 27.6895 76.0938 27.7305V38.8322C76.0938 38.873 76.0605 38.9062 76.0197 38.9062H73.125V27.6562H76.0197ZM76.4844 63.3594H3.51562C2.86937 63.3594 2.34375 62.8338 2.34375 62.1875C2.34375 61.5412 2.86937 61.0156 3.51562 61.0156H76.4844C77.1306 61.0156 77.6562 61.5412 77.6562 62.1875C77.6562 62.8338 77.1306 63.3594 76.4844 63.3594Z" fill="#BF9C5C"/>
<path d="M8.04688 36.4844C8.69406 36.4844 9.21875 35.9597 9.21875 35.3125V18.2812C9.21875 14.7919 12.0575 11.9531 15.5469 11.9531H16.3281V33.125C16.3281 35.0636 17.9052 36.6406 19.8438 36.6406C21.7823 36.6406 23.3594 35.0636 23.3594 33.125V11.9531H27.3438V14.375C27.3438 15.7105 28.4302 16.7969 29.7656 16.7969H46.0156C47.3511 16.7969 48.4375 15.7105 48.4375 14.375V11.9531H49.9795C50.6267 11.9531 51.1514 11.4284 51.1514 10.7812C51.1514 10.1341 50.6267 9.60938 49.9795 9.60938H15.5469C10.7652 9.60938 6.875 13.4995 6.875 18.2812V35.3125C6.875 35.9597 7.39969 36.4844 8.04688 36.4844ZM46.0938 14.375C46.0938 14.4181 46.0588 14.4531 46.0156 14.4531H29.7656C29.7225 14.4531 29.6875 14.4181 29.6875 14.375V12.0312H46.0938V14.375ZM21.0156 11.9531V33.125C21.0156 33.7712 20.49 34.2969 19.8438 34.2969C19.1975 34.2969 18.6719 33.7712 18.6719 33.125V11.9531H21.0156Z" fill="#BF9C5C"/>
<path d="M66.25 24.9219C66.25 21.2602 63.2711 18.2812 59.6094 18.2812C55.9477 18.2812 52.9688 21.2602 52.9688 24.9219C52.9688 28.5836 55.9477 31.5625 59.6094 31.5625C63.2711 31.5625 66.25 28.5836 66.25 24.9219ZM59.6094 29.2188C57.24 29.2188 55.3125 27.2913 55.3125 24.9219C55.3125 22.5525 57.24 20.625 59.6094 20.625C61.9788 20.625 63.9062 22.5525 63.9062 24.9219C63.9062 27.2913 61.9788 29.2188 59.6094 29.2188Z" fill="#133244"/>
<path d="M55.625 41.6406C55.625 43.8377 57.4123 45.625 59.6094 45.625C61.8064 45.625 63.5938 43.8377 63.5938 41.6406C63.5938 39.4436 61.8064 37.6562 59.6094 37.6562C57.4123 37.6562 55.625 39.4436 55.625 41.6406ZM61.25 41.6406C61.25 42.5453 60.5141 43.2812 59.6094 43.2812C58.7047 43.2812 57.9688 42.5453 57.9688 41.6406C57.9688 40.7359 58.7047 40 59.6094 40C60.5141 40 61.25 40.7359 61.25 41.6406Z" fill="#133244"/>
</svg>
