<svg width="40" height="40" viewBox="0 0 40 40" fill="none" xmlns="http://www.w3.org/2000/svg">
<path d="M1.53178 26.2303C1.73475 26.6803 2.18631 26.9711 2.68233 26.9711H3.97936V30.1182C3.97936 30.4418 4.24162 30.7041 4.56529 30.7041C4.88897 30.7041 5.15123 30.4418 5.15123 30.1182V26.9711H6.00326C6.62983 26.9711 7.15444 26.5227 7.25092 25.905C7.35201 25.2574 7.62061 23.9948 8.2849 22.8141C8.44358 22.5321 8.34358 22.1748 8.06162 22.0162C7.77959 21.8576 7.4224 21.9575 7.26365 22.2395C6.50897 23.5809 6.20631 24.9986 6.09311 25.7243C6.08647 25.767 6.04787 25.7992 6.00334 25.7992H2.68233C2.64623 25.7992 2.61397 25.7794 2.60006 25.7486C1.67858 23.7052 1.15819 21.2718 1.17217 19.0723C1.18631 16.8358 1.7199 14.8946 2.61154 13.687C2.62561 13.6704 2.63873 13.6532 2.65061 13.6355C2.89475 13.3143 3.16475 13.0467 3.45787 12.8428C5.22373 11.6143 6.10834 11.8403 8.24569 12.3859C9.64764 12.7439 11.5676 13.2341 14.4666 13.46C18.7035 13.7894 20.8547 12.6607 22.2783 11.9137C22.5638 11.7639 22.8105 11.6345 23.0351 11.5376C24.5908 10.8658 26.2328 10.4805 27.5401 10.4805C28.9528 10.4805 30.2933 10.9297 31.4168 11.7794C31.6751 11.9746 32.0423 11.9237 32.2376 11.6655C32.4328 11.4073 32.3819 11.0399 32.1237 10.8447C31.0674 10.0459 29.8489 9.54758 28.5547 9.37641V8.82812H28.9062C29.4016 8.82812 29.8047 8.42508 29.8047 7.92969V3.71094C29.8047 3.21555 29.4016 2.8125 28.9062 2.8125H27.0312C26.5358 2.8125 26.1328 3.21555 26.1328 3.71094V3.86313C17.9801 3.94445 12.0095 5.70516 8.40858 7.18867C5.29522 8.47125 3.39615 9.74851 2.65694 10.2936C2.44694 10.1931 2.21615 10.1384 1.97654 10.1384C1.55623 10.1384 1.15998 10.3025 0.859435 10.6018C0.244982 11.2175 0.244982 12.2194 0.859904 12.8355L1.40412 13.3797C0.520607 14.7865 0.0147478 16.7781 0.00029472 19.0648C-0.0147053 21.427 0.543498 24.0387 1.53178 26.2303ZM27.3047 3.98437H28.6328V7.65625H27.3047V3.98437ZM8.91225 8.24859C12.4071 6.81594 18.2041 5.11555 26.1328 5.03492V7.92969C26.1328 8.42508 26.5358 8.82812 27.0312 8.82812H27.3828V9.31133C25.9499 9.33984 24.2075 9.75476 22.5704 10.4616C22.3052 10.5762 22.0276 10.7218 21.7338 10.8759C20.3512 11.6013 18.4575 12.5949 14.5576 12.2916C11.7596 12.0735 9.89615 11.5978 8.53561 11.2504C6.6774 10.776 5.43889 10.4601 3.77873 11.286L3.57287 11.0802C4.38928 10.5061 6.17069 9.3725 8.91225 8.24859ZM1.68889 12.0072C1.52998 11.8479 1.52998 11.5887 1.68756 11.4308C1.76569 11.353 1.86826 11.3102 1.97647 11.3102C2.08553 11.3102 2.18803 11.3527 2.26522 11.4299L2.7467 11.9114C2.52936 12.0667 2.32311 12.2458 2.1285 12.4468L1.68889 12.0072Z" fill="#BF9C5C"/>
<path d="M27.5405 12.1875C24.9344 12.1875 22.814 14.3078 22.814 16.9141C22.814 19.5203 24.9344 21.6406 27.5405 21.6406C30.1467 21.6406 32.2671 19.5203 32.2671 16.9141C32.2671 14.3078 30.1467 12.1875 27.5405 12.1875ZM27.5405 20.4688C25.5804 20.4688 23.9858 18.8741 23.9858 16.9141C23.9858 14.954 25.5804 13.3594 27.5405 13.3594C29.5006 13.3594 31.0952 14.954 31.0952 16.9141C31.0952 18.8741 29.5006 20.4688 27.5405 20.4688Z" fill="#133244"/>
<path d="M38.2422 26.9711C39.2114 26.9711 40 26.1826 40 25.2133V13.182C40 12.2127 39.2114 11.4242 38.2422 11.4242C37.273 11.4242 36.4844 12.2127 36.4844 13.182V17.4398H35.1455V16.914C35.1455 15.4594 34.7334 14.0454 33.9536 12.8247C33.7795 12.552 33.4171 12.4722 33.1444 12.6464C32.8717 12.8206 32.7918 13.1829 32.9661 13.4556C33.6253 14.4875 33.9737 15.6833 33.9737 16.914L33.9734 20.3695C33.9734 20.3711 33.9737 20.3725 33.9737 20.374V31.3281H23.175C23.6787 29.9555 24.4667 27.106 23.6976 24.2067C23.0269 21.6782 21.927 20.2341 20.1315 19.5247C18.4801 18.8721 16.4003 18.8741 13.5213 18.8768L12.963 18.8771C11.4477 18.8771 10.1291 19.3004 9.04422 20.1354C8.78781 20.3328 8.73984 20.7007 8.93727 20.9572C9.13461 21.2136 9.50234 21.2617 9.75898 21.0641C10.6342 20.3905 11.7123 20.049 12.963 20.049L13.5224 20.0486C19.0802 20.0429 21.3805 20.0413 22.5651 24.5072C23.3341 27.4059 22.3096 30.359 21.9159 31.3281H1.75781C0.788594 31.3281 0 32.1166 0 33.0859C0 33.9485 0.624688 34.6674 1.44531 34.8154V36.6015C1.44531 36.9251 1.70758 37.1875 2.03125 37.1875H22.4895C22.8131 37.1875 23.0754 36.9251 23.0754 36.6015C23.0754 36.2779 22.8131 36.0156 22.4895 36.0156H2.61719V34.8437H37.3828V36.0156H25.0185C24.6948 36.0156 24.4326 36.2779 24.4326 36.6015C24.4326 36.9251 24.6948 37.1875 25.0185 37.1875H37.9688C38.2924 37.1875 38.5547 36.9251 38.5547 36.6015V34.8154C39.3753 34.6675 40 33.9485 40 33.0859C40 32.1166 39.2114 31.3281 38.2422 31.3281H35.1455V20.9554H36.4844V25.2133C36.4844 26.1826 37.273 26.9711 38.2422 26.9711ZM38.8281 33.0859C38.8281 33.409 38.5653 33.6719 38.2422 33.6719H1.75781C1.43469 33.6719 1.17188 33.409 1.17188 33.0859C1.17188 32.7628 1.43469 32.5 1.75781 32.5H38.2422C38.5653 32.5 38.8281 32.7628 38.8281 33.0859ZM37.6562 13.182C37.6562 12.8589 37.9191 12.5961 38.2422 12.5961C38.5653 12.5961 38.8281 12.8589 38.8281 13.182V25.2133C38.8281 25.5364 38.5653 25.7992 38.2422 25.7992C37.9191 25.7992 37.6562 25.5364 37.6562 25.2133V13.182ZM35.1455 19.7836V18.6117H36.4844V19.7836H35.1455Z" fill="#BF9C5C"/>
</svg>
