<svg width="60" height="60" viewBox="0 0 60 60" fill="none" xmlns="http://www.w3.org/2000/svg">
<g clip-path="url(#clip0_239_1072)">
<path d="M59.136 39.3786C58.9868 39.3762 44.1735 39.1266 40.3641 39.1266C39.16 39.1266 37.9106 38.9152 36.6511 38.4984C35.3013 38.0516 34.3944 36.7985 34.3944 35.3802V34.5288C35.4553 34.1326 36.4641 33.5905 37.3978 32.9086C37.7899 32.6224 37.8756 32.0725 37.5893 31.6806C37.303 31.2885 36.7532 31.2028 36.3613 31.4891C34.508 32.8426 32.3109 33.5579 30.0082 33.5579H29.9918C24.045 33.5579 19.207 28.7194 19.207 22.772V18.9299C19.8173 17.5243 21.0156 15.7474 21.8271 15.8576C26.9848 16.55 30.8834 15.9166 33.4143 13.975C33.9111 13.5939 34.3064 13.1953 34.6202 12.8101C35.291 13.9403 36.4086 14.7683 37.3192 15.4431C37.5219 15.5932 37.7134 15.7351 37.8906 15.8728C39.7979 17.3552 40.5611 18.6023 40.7929 19.0485V22.7721C40.7929 25.0329 40.1016 27.1968 38.7934 29.0298C38.5116 29.425 38.6032 29.9739 38.9984 30.2558C39.1532 30.3662 39.3315 30.4194 39.5081 30.4194C39.7826 30.4194 40.0528 30.2912 40.2244 30.0509C41.0504 28.8932 41.6632 27.6217 42.0525 26.2812C42.425 26.4182 42.8143 26.4892 43.2116 26.4892C45.3335 26.4892 46.8737 24.2296 46.8737 21.1161C46.8737 18.4669 45.694 16.6669 43.818 16.3516C44.2882 14.9331 44.6979 13.0908 44.6979 10.9751C44.6979 8.36449 43.9421 6.31125 42.4514 4.87254C40.6745 3.15738 38.3798 2.8527 37.4378 2.80242C36.6084 1.97285 34.0403 0 28.3788 0C25.0492 0 22.2737 0.722226 20.1293 2.14652C19.725 2.415 19.615 2.96051 19.8834 3.3648C20.152 3.76922 20.6974 3.87926 21.1018 3.61066C22.9529 2.38125 25.4013 1.75781 28.3788 1.75781C34.2799 1.75781 36.2368 4.07543 36.3309 4.19203C36.4997 4.43648 36.7696 4.55754 37.0684 4.55109C37.0921 4.55004 39.5464 4.49988 41.243 6.14906C42.3691 7.24359 42.9401 8.86723 42.9401 10.975C42.9401 13.6141 42.2113 15.8051 41.6389 17.1187C41.0979 16.4016 40.2558 15.4846 38.9693 14.4846C38.7763 14.3346 38.5767 14.1868 38.3657 14.0304C36.7762 12.8528 35.6617 11.9071 35.7969 10.4561C35.8406 9.9873 35.508 9.56262 35.0418 9.49887C34.5745 9.43465 34.1423 9.74555 34.0587 10.2087C34.0477 10.2623 33.7723 11.5369 32.2331 12.6634C30.7494 13.7497 27.7805 14.8833 22.0609 14.1152C20.2713 13.8745 18.887 15.7637 18.1229 17.1526C17.8046 16.5688 17.4388 15.6159 17.2008 14.105C16.9782 12.6921 16.6796 9.07441 18.7087 6.00563C18.9765 5.60074 18.8653 5.05547 18.4604 4.7877C18.0555 4.5198 17.5103 4.63113 17.2425 5.03602C14.8737 8.61855 15.2099 12.763 15.4643 14.3786C15.5884 15.1663 15.747 15.8358 15.9234 16.4066C14.1984 16.8383 13.1259 18.5907 13.1259 21.116C13.1259 24.2293 14.6661 26.4891 16.788 26.4891C17.186 26.4891 17.5759 26.4177 17.949 26.2804C19.0586 30.0836 21.9243 33.1447 25.6053 34.5236V35.3802C25.6053 36.7986 24.6984 38.0517 23.3488 38.4984C22.0891 38.9153 20.84 39.1266 19.6358 39.1266C15.8264 39.1266 1.01309 39.3762 0.863906 39.3786C0.384492 39.3868 0 39.7779 0 40.2574V47.0203C0 47.5058 0.393516 47.8992 0.878906 47.8992H11.9121C12.6946 47.8992 13.3312 48.5359 13.3312 49.3182V53.5547H8.32031C7.83492 53.5547 7.44141 53.9481 7.44141 54.4336V59.1211C7.44141 59.6066 7.83492 60 8.32031 60H18.7671C19.2525 60 19.646 59.6066 19.646 59.1211C19.646 58.6356 19.2525 58.2422 18.7671 58.2422H9.19922V55.3125H11.6016V55.9301C11.6016 56.4156 11.9951 56.809 12.4805 56.809C12.9659 56.809 13.3594 56.4156 13.3594 55.9301V55.3125H15.9814V55.9301C15.9814 56.4156 16.375 56.809 16.8603 56.809C17.3457 56.809 17.7393 56.4156 17.7393 55.9301V55.3125H20.3613V55.9301C20.3613 56.4156 20.7548 56.809 21.2402 56.809C21.7256 56.809 22.1191 56.4156 22.1191 55.9301V55.3125H24.7412V55.9301C24.7412 56.4156 25.1347 56.809 25.6201 56.809C26.1055 56.809 26.499 56.4156 26.499 55.9301V55.3125H29.1211V55.9301C29.1211 56.4156 29.5146 56.809 30 56.809C30.4855 56.809 30.8789 56.4156 30.8789 55.9301V55.3125H33.501V55.9301C33.501 56.4156 33.8944 56.809 34.3799 56.809C34.8654 56.809 35.2588 56.4156 35.2588 55.9301V55.3125H37.8809V55.9301C37.8809 56.4156 38.2743 56.809 38.7598 56.809C39.2453 56.809 39.6387 56.4156 39.6387 55.9301V55.3125H42.2607V55.9301C42.2607 56.4156 42.6541 56.809 43.1396 56.809C43.6252 56.809 44.0186 56.4156 44.0186 55.9301V55.3125H46.6406V55.9301C46.6406 56.4156 47.034 56.809 47.5195 56.809C48.005 56.809 48.3984 56.4156 48.3984 55.9301V55.3125H50.8008V58.2422H22.539C22.0536 58.2422 21.6601 58.6356 21.6601 59.1211C21.6601 59.6066 22.0536 60 22.539 60H51.6797C52.1652 60 52.5586 59.6066 52.5586 59.1211V54.4336C52.5586 53.9481 52.1652 53.5547 51.6797 53.5547H46.6687V49.3184C46.6687 48.5359 47.3054 47.8993 48.0878 47.8993H59.121C59.6065 47.8993 59.9999 47.5059 59.9999 47.0204V40.2575C60 39.7779 59.6155 39.3868 59.136 39.3786ZM43.2117 18.0598C44.6157 18.0598 45.116 19.6385 45.116 21.116C45.116 22.893 44.4037 24.7312 43.2117 24.7312C42.9084 24.7312 42.6448 24.6415 42.4275 24.5245C42.5079 23.9479 42.5507 23.363 42.5507 22.7719V19.2238C42.6756 19.0111 42.8948 18.6149 43.1476 18.062C43.1691 18.0612 43.1903 18.0598 43.2117 18.0598ZM16.7883 24.7312C15.5962 24.7312 14.884 22.893 14.884 21.116C14.884 19.7006 15.3436 18.1935 16.6164 18.069C16.9144 18.6014 17.2098 18.9521 17.4492 19.1786V22.7719C17.4492 23.3667 17.4918 23.9517 17.5723 24.5246C17.3551 24.6416 17.0914 24.7312 16.7883 24.7312ZM58.2422 46.1414H48.0879C46.3362 46.1414 44.9111 47.5665 44.9111 49.3182V53.5547H15.0891V49.3184C15.0891 47.5666 13.6638 46.1415 11.9121 46.1415H1.75781V41.1219C4.99523 41.0685 16.376 40.8845 19.6359 40.8845C21.028 40.8845 22.4631 40.6432 23.9012 40.1673C25.9719 39.4819 27.3633 37.558 27.3633 35.3802V35.0378C28.2112 35.2193 29.0904 35.3157 29.9918 35.3157H30.0082C30.9016 35.3157 31.7809 35.2209 32.6367 35.0391V35.3802C32.6367 37.5581 34.0281 39.4819 36.0989 40.1673C37.5369 40.6433 38.972 40.8845 40.3641 40.8845C43.6239 40.8845 55.0046 41.0685 58.2422 41.1219V46.1414Z" fill="#BF9C5C"/>
<path d="M31.3845 27.5278C30.5564 27.759 29.444 27.759 28.6159 27.5278C28.1484 27.3971 27.6636 27.6704 27.5331 28.138C27.4025 28.6054 27.6757 29.0903 28.1433 29.2208C28.716 29.3806 29.3582 29.4607 30.0002 29.4607C30.6423 29.4607 31.2845 29.3806 31.8572 29.2208C32.3248 29.0902 32.5979 28.6054 32.4674 28.138C32.3367 27.6705 31.852 27.3973 31.3845 27.5278Z" fill="#133244"/>
<path d="M24.1992 21.5625V22.2656C24.1992 22.7511 24.5927 23.1445 25.0781 23.1445C25.5635 23.1445 25.957 22.7511 25.957 22.2656V21.5625C25.957 21.077 25.5635 20.6836 25.0781 20.6836C24.5927 20.6836 24.1992 21.077 24.1992 21.5625Z" fill="#133244"/>
<path d="M34.043 21.5625V22.2656C34.043 22.7511 34.4364 23.1445 34.9219 23.1445C35.4074 23.1445 35.8008 22.7511 35.8008 22.2656V21.5625C35.8008 21.077 35.4074 20.6836 34.9219 20.6836C34.4364 20.6836 34.043 21.077 34.043 21.5625Z" fill="#133244"/>
<path d="M20.8983 50.4583C19.7786 50.4583 18.7132 49.357 18.3988 48.9349C18.1113 48.5436 17.5612 48.4594 17.1702 48.7468C16.779 49.0341 16.6947 49.5842 16.9822 49.9754C17.0493 50.0669 18.6539 52.2161 20.8983 52.2161C21.3836 52.2161 21.7772 51.8227 21.7772 51.3372C21.7772 50.8517 21.3836 50.4583 20.8983 50.4583Z" fill="#133244"/>
<path d="M38.2231 51.337C38.2231 51.8225 38.6165 52.2159 39.1021 52.2159C41.3465 52.2159 42.951 50.0667 43.0182 49.9752C43.3049 49.585 43.2208 49.0375 42.8315 48.7495C42.4427 48.4616 41.8924 48.544 41.6032 48.9323C41.2871 49.3568 40.2217 50.4582 39.1021 50.4582C38.6165 50.4581 38.2231 50.8516 38.2231 51.337Z" fill="#133244"/>
</g>
<defs>
<clipPath id="clip0_239_1072">
<rect width="60" height="60" fill="white"/>
</clipPath>
</defs>
</svg>
