<svg width="50" height="50" viewBox="0 0 50 50" fill="none" xmlns="http://www.w3.org/2000/svg">
<path d="M8.39844 35.103C8.80303 35.103 9.13086 34.7752 9.13086 34.3706V15.1426C9.13086 11.5568 12.048 8.63965 15.6338 8.63965H18.0681C18.4687 10.2028 19.384 12.8448 21.0899 13.4431C21.4273 13.5614 21.7602 13.6119 22.0834 13.6119C23.3048 13.6117 24.3825 12.8888 25 12.3687C25.6174 12.8889 26.6952 13.6119 27.9167 13.6119C28.2398 13.6119 28.573 13.5612 28.9102 13.4431C30.6161 12.8449 31.5314 10.2029 31.932 8.63965H34.3663C35.6098 8.63965 36.8183 8.9916 37.861 9.65742C37.9831 9.73545 38.1195 9.77266 38.2545 9.77266C38.4962 9.77266 38.7327 9.65312 38.8725 9.43428C39.0901 9.09336 38.9902 8.64053 38.6493 8.42285C37.3707 7.60645 35.8897 7.1749 34.3663 7.1749H31.5105C31.4653 7.13477 31.4179 7.09658 31.367 7.06211L28.3377 5.00791C28.3377 5.00791 28.3376 5.00791 28.3376 5.00801C28.2205 4.92852 28.0791 4.88203 27.9269 4.88203H27.1974V4.42471C27.5494 3.96152 27.7589 3.38428 27.7589 2.75889C27.7588 1.2376 26.5212 0 25 0C23.4788 0 22.2412 1.2376 22.2412 2.75879C22.2412 3.38418 22.4507 3.96133 22.8027 4.42461V4.88193H22.0732C21.921 4.88193 21.7796 4.92852 21.6624 5.00801V5.00791L18.633 7.06211C18.5821 7.09668 18.5347 7.13477 18.4895 7.1749H15.6338C11.2403 7.1749 7.66602 10.7492 7.66602 15.1427V34.3708C7.66602 34.7752 7.99385 35.103 8.39844 35.103ZM21.5746 12.0607C20.8242 11.7977 20.0042 10.3058 19.4818 8.25635L21.4119 6.94746C21.5877 8.21201 22.1408 10.081 23.8163 11.4348C23.2437 11.8649 22.3739 12.3404 21.5746 12.0607ZM25 10.4905C24.2522 9.9624 23.7557 9.30215 23.4283 8.63965H26.5717C26.2444 9.30205 25.7478 9.9624 25 10.4905ZM25.7324 7.1748H24.2676V5.41807C24.501 5.48242 24.7464 5.51758 25 5.51758C25.2536 5.51758 25.499 5.48252 25.7324 5.41807V7.1748ZM28.4254 12.0607C27.6264 12.341 26.7561 11.8648 26.1836 11.4348C27.8591 10.081 28.4123 8.21201 28.5881 6.94746L30.5182 8.25635C29.9957 10.3059 29.1758 11.7977 28.4254 12.0607ZM25 1.46484C25.7135 1.46484 26.2939 2.04531 26.2939 2.75879C26.2939 3.47227 25.7135 4.05273 25 4.05273C24.2865 4.05273 23.7061 3.47227 23.7061 2.75879C23.7061 2.04531 24.2865 1.46484 25 1.46484Z" fill="#BF9C5C"/>
<path d="M41.0784 10.8476C40.8602 10.5069 40.407 10.4079 40.0666 10.6263C39.7261 10.8445 39.627 11.2976 39.8453 11.6381C40.515 12.6829 40.8691 13.8946 40.8691 15.1425V41.5937H35.8887V16.7681C35.8887 16.3635 35.5608 16.0357 35.1562 16.0357C34.7517 16.0357 34.4238 16.3635 34.4238 16.7681V41.5938H15.5762V16.7681C15.5762 16.3635 15.2483 16.0357 14.8438 16.0357C14.4392 16.0357 14.1113 16.3635 14.1113 16.7681V41.5938H9.13086V37.4775C9.13086 37.0729 8.80303 36.745 8.39844 36.745C7.99385 36.745 7.66602 37.0729 7.66602 37.4775V42.3262C7.66602 42.7308 7.99385 43.0586 8.39844 43.0586H14.8343C14.8374 43.0586 14.8405 43.0591 14.8438 43.0591C14.847 43.0591 14.85 43.0587 14.8532 43.0586H21.3379V49.2676C21.3379 49.6722 21.6657 50 22.0703 50H27.9297C28.3343 50 28.6621 49.6722 28.6621 49.2676V46.8797C28.6621 46.4751 28.3343 46.1473 27.9297 46.1473C27.5251 46.1473 27.1973 46.4751 27.1973 46.8797V48.5352H22.8027V43.0591H27.1973V43.7547C27.1973 44.1593 27.5251 44.4871 27.9297 44.4871C28.3343 44.4871 28.6621 44.1593 28.6621 43.7547V43.0586H35.1468C35.1499 43.0586 35.153 43.0591 35.1562 43.0591C35.1595 43.0591 35.1625 43.0587 35.1657 43.0586H41.6016C42.0062 43.0586 42.334 42.7308 42.334 42.3262V15.1426C42.334 13.614 41.8998 12.1288 41.0784 10.8476Z" fill="#BF9C5C"/>
<path d="M25 16.152C23.7346 16.152 22.7051 17.1815 22.7051 18.4469C22.7051 19.7123 23.7346 20.7418 25 20.7418C26.2654 20.7418 27.2949 19.7123 27.2949 18.4469C27.2949 17.1815 26.2654 16.152 25 16.152ZM25 19.277C24.5423 19.277 24.1699 18.9046 24.1699 18.4469C24.1699 17.9892 24.5423 17.6168 25 17.6168C25.4577 17.6168 25.8301 17.9892 25.8301 18.4469C25.8301 18.9046 25.4577 19.277 25 19.277Z" fill="#133244"/>
<path d="M25 24.2238C23.7346 24.2238 22.7051 25.2533 22.7051 26.5187C22.7051 27.7842 23.7346 28.8137 25 28.8137C26.2654 28.8137 27.2949 27.7842 27.2949 26.5187C27.2949 25.2533 26.2654 24.2238 25 24.2238ZM25 27.3488C24.5423 27.3488 24.1699 26.9765 24.1699 26.5187C24.1699 26.061 24.5423 25.6887 25 25.6887C25.4577 25.6887 25.8301 26.061 25.8301 26.5187C25.8301 26.9765 25.4577 27.3488 25 27.3488Z" fill="#133244"/>
<path d="M25 32.2957C23.7346 32.2957 22.7051 33.3252 22.7051 34.5906C22.7051 35.8561 23.7346 36.8856 25 36.8856C26.2654 36.8856 27.2949 35.8561 27.2949 34.5906C27.2949 33.3252 26.2654 32.2957 25 32.2957ZM25 35.4207C24.5423 35.4207 24.1699 35.0484 24.1699 34.5906C24.1699 34.1329 24.5423 33.7606 25 33.7606C25.4577 33.7606 25.8301 34.1329 25.8301 34.5906C25.8301 35.0484 25.4577 35.4207 25 35.4207Z" fill="#133244"/>
</svg>
