<svg width="50" height="50" viewBox="0 0 50 50" fill="none" xmlns="http://www.w3.org/2000/svg">
<g clip-path="url(#clip0_198_2)">
<path d="M48.3197 28.725C49.1458 27.5896 50 26.4155 50 25.0008C50 23.5861 49.1458 22.412 48.3197 21.2766C47.7633 20.5118 47.2377 19.7895 47.0514 19.0922C46.8529 18.3497 46.9471 17.4331 47.0468 16.4626C47.1877 15.0916 47.3335 13.6739 46.6537 12.499C45.9626 11.304 44.65 10.7195 43.3806 10.1542C42.4997 9.76206 41.6678 9.39165 41.1389 8.86235C40.917 8.64048 40.7039 8.34419 40.4878 7.95659C40.2907 7.60327 39.8443 7.47671 39.4914 7.67368C39.1381 7.87065 39.0114 8.31675 39.2084 8.67007C39.4915 9.17768 39.7842 9.57944 40.1031 9.89819C40.8238 10.6194 41.8207 11.0632 42.7848 11.4925C43.8893 11.9843 44.9325 12.4488 45.3856 13.2325C45.8277 13.9965 45.7122 15.1217 45.5897 16.313C45.4809 17.3725 45.3682 18.4679 45.6363 19.4707C45.8931 20.4311 46.5246 21.2991 47.1353 22.1384C47.8551 23.1279 48.5352 24.0625 48.5352 25.0008C48.5352 25.9391 47.8551 26.8738 47.1352 27.8633C46.5244 28.7027 45.8929 29.5707 45.636 30.5312C45.3681 31.5339 45.4807 32.6293 45.5896 33.6888C45.712 34.88 45.8276 36.0052 45.3854 36.7695C44.9323 37.5531 43.8891 38.0175 42.7846 38.5093C41.8205 38.9386 40.8236 39.3825 40.1032 40.1033C39.382 40.824 38.9382 41.8207 38.5089 42.7848C38.0171 43.8893 37.5525 44.9325 36.7688 45.3857C36.0048 45.8278 34.8793 45.7122 33.6882 45.5897C32.6286 45.4807 31.5334 45.3681 30.5306 45.6363C29.57 45.893 28.702 46.5246 27.8625 47.1353C26.8729 47.8552 25.9383 48.5352 24.9999 48.5352C24.0616 48.5352 23.1269 47.8552 22.1373 47.1353C21.2978 46.5246 20.4298 45.8931 19.4692 45.6363C18.4667 45.3683 17.3711 45.4808 16.3116 45.5897C15.1203 45.7121 13.995 45.8278 13.2308 45.3856C12.4473 44.9325 11.9827 43.8893 11.4909 42.7848C11.0616 41.8207 10.6178 40.824 9.89688 40.1036C9.17617 39.3825 8.1793 38.9385 7.21523 38.5092C6.11074 38.0174 5.06748 37.553 4.61436 36.7693C4.17227 36.0052 4.28779 34.88 4.41025 33.6887C4.51914 32.6292 4.63184 31.5338 4.36367 30.5311C4.10693 29.5707 3.47539 28.7027 2.86465 27.8633C2.14492 26.8738 1.46484 25.9391 1.46484 25.0008C1.46484 24.0625 2.14492 23.1279 2.86484 22.1383C3.47559 21.299 4.10713 20.4309 4.36397 19.4705C4.63193 18.4677 4.51934 17.3723 4.41045 16.3128C4.28799 15.1216 4.17236 13.9964 4.61455 13.2322C5.06768 12.4486 6.11094 11.9841 7.21543 11.4923C8.17949 11.063 9.17637 10.6192 9.89678 9.89839C10.618 9.17768 11.0618 8.18091 11.4911 7.21675C11.9829 6.11235 12.4475 5.06909 13.2312 4.61597C13.9953 4.17388 15.121 4.2894 16.3125 4.41177C16.6966 4.45122 17.0891 4.49175 17.4804 4.51382C17.6242 5.00103 18.0747 5.35786 18.6075 5.35786H20.1397V5.82632C18.7503 6.17759 17.4001 6.68071 16.0985 7.33784C15.7374 7.52017 15.5925 7.96069 15.7748 8.32173C15.9572 8.68286 16.3979 8.82769 16.7587 8.64536C18.1207 7.95776 19.5405 7.45171 21.0056 7.12622C21.0197 7.12358 21.0336 7.12036 21.0474 7.11694C22.3325 6.83462 23.6523 6.69067 25 6.69067C35.0965 6.69067 43.3105 14.9044 43.3105 25.0006C43.3105 33.0669 38.1405 40.0944 30.4454 42.4875C30.0592 42.6077 29.8435 43.0181 29.9636 43.4044C30.0611 43.7183 30.3504 43.9195 30.6627 43.9195C30.7347 43.9195 30.808 43.9087 30.8804 43.8863C34.8222 42.6604 38.3615 40.1554 40.8464 36.8328C43.4167 33.3959 44.7753 29.3044 44.7753 25.0006C44.7753 15.7733 38.4221 8.00259 29.8603 5.83101V5.35776H31.3925C31.9254 5.35776 32.376 5.00073 32.5197 4.51333C32.9109 4.49126 33.3034 4.45103 33.6875 4.41157C34.8792 4.28921 36.0048 4.17368 36.769 4.61577C37.1632 4.8437 37.5089 5.23901 37.857 5.85991C37.9913 6.09946 38.2402 6.23423 38.4966 6.23423C38.6179 6.23423 38.7408 6.20405 38.8541 6.14058C39.2069 5.94272 39.3325 5.49644 39.1348 5.14351C38.6525 4.28345 38.1338 3.71284 37.5024 3.3477C36.3273 2.66802 34.9095 2.81353 33.5379 2.95435C33.2041 2.98862 32.8812 3.02134 32.5683 3.04233V2.13892C32.5683 1.49067 32.0408 0.963135 31.3925 0.963135H29.8469C29.767 0.419971 29.2993 0.0012207 28.7343 0.0012207H26.5907C26.3864 0.0012207 26.1952 0.0568847 26.0299 0.152588C25.3313 -0.0515137 24.6685 -0.0515137 23.9699 0.152588C23.8046 0.0568847 23.6134 0.0012207 23.4091 0.0012207H21.2655C20.7006 0.0012207 20.2328 0.419971 20.1529 0.963135H18.6074C17.9591 0.963135 17.4316 1.49058 17.4316 2.13892V3.04233C17.1187 3.02124 16.7958 2.98853 16.462 2.95435C15.0908 2.81343 13.6727 2.66782 12.4977 3.34761C11.3025 4.03862 10.718 5.35122 10.1527 6.62056C9.76055 7.50132 9.39004 8.33325 8.86084 8.86216C8.33223 9.39116 7.5002 9.76157 6.61943 10.1538C5.35 10.719 4.0375 11.3035 3.34639 12.4983C2.6665 13.6734 2.81221 15.0911 2.95322 16.4622C3.05293 17.4326 3.14707 18.3493 2.94873 19.0917C2.7623 19.789 2.23672 20.5114 1.68027 21.2761C0.854199 22.412 0 23.5861 0 25.0008C0 26.4156 0.854199 27.5897 1.68027 28.725C2.23672 29.4899 2.7623 30.2122 2.94863 30.9094C3.14707 31.652 3.05293 32.5686 2.95322 33.539C2.8123 34.9101 2.6665 36.3278 3.34629 37.5027C4.0374 38.6977 5.35 39.2822 6.61943 39.8474C7.50029 40.2396 8.33223 40.61 8.86113 41.1394C9.39014 41.668 9.76064 42.4999 10.1528 43.3807C10.7181 44.65 11.3025 45.9626 12.4976 46.6536C13.6727 47.3333 15.0904 47.1877 16.4615 47.0468C17.432 46.9471 18.3486 46.8529 19.0912 47.0513C19.7886 47.2377 20.5109 47.7632 21.2758 48.3197C22.4111 49.1457 23.5853 50 25 50C26.4147 50 27.5889 49.1457 28.7243 48.3198C29.4892 47.7633 30.2115 47.2377 30.9089 47.0514C31.6515 46.853 32.568 46.9472 33.5386 47.0469C34.9095 47.1877 36.3273 47.3334 37.5023 46.6538C38.6975 45.9627 39.282 44.6501 39.8473 43.3808C40.2395 42.5 40.61 41.6681 41.1392 41.1392C41.6678 40.6102 42.4998 40.2398 43.3806 39.8476C44.65 39.2824 45.9625 38.6979 46.6536 37.5031C47.3335 36.328 47.1878 34.9103 47.0468 33.5392C46.9471 32.5688 46.8529 31.6521 47.0513 30.9096C47.2377 30.2123 47.7633 29.4899 48.3197 28.725ZM24.5342 3.89312V2.42837H25.4657V3.89312H24.5342ZM31.1035 3.89312H29.8603V2.42837H31.1035V3.89312ZM28.3955 5.5188C27.9129 5.43491 27.4244 5.36851 26.9307 5.32046V1.46645H28.3955V5.5188ZM21.6045 1.46645H23.0693V5.31948C22.5771 5.36665 22.0886 5.43091 21.6045 5.51431V1.46645ZM18.8965 2.42837H20.1396V3.89312H18.8965V2.42837Z" fill="#BF9C5C"/>
<path d="M27.4678 43.146C26.656 43.2553 25.8257 43.3107 25 43.3107C14.9035 43.3107 6.68945 35.0969 6.68945 25.0007C6.68945 19.1798 9.49854 13.6506 14.2036 10.2104C14.5302 9.97164 14.6013 9.51344 14.3625 9.18688C14.1237 8.86031 13.6655 8.78922 13.3391 9.02799C10.8791 10.8267 8.83838 13.2038 7.4376 15.9021C5.98984 18.6912 5.22461 21.8374 5.22461 25.0008C5.22461 35.9046 14.0958 44.7755 25 44.7755C25.8907 44.7755 26.7868 44.7157 27.6632 44.5977C28.0641 44.5437 28.3452 44.175 28.2913 43.7741C28.2373 43.3731 27.868 43.0927 27.4678 43.146Z" fill="#BF9C5C"/>
<path d="M41.8457 25.0009C41.8457 15.7125 34.2888 8.15576 25 8.15576C15.7112 8.15576 8.1543 15.7124 8.1543 25.0009C8.1543 34.2894 15.7112 41.846 25 41.846C34.2888 41.846 41.8457 34.2893 41.8457 25.0009ZM25 40.3811C16.5189 40.3811 9.61914 33.4815 9.61914 25.0008C9.61914 16.52 16.5189 9.62051 25 9.62051C33.4811 9.62051 40.3809 16.5201 40.3809 25.0009C40.3809 33.4816 33.4811 40.3811 25 40.3811Z" fill="#BF9C5C"/>
<path d="M33.8234 20.0245L29.5454 19.4028C29.285 19.3649 29.0599 19.2016 28.9435 18.9655L27.0303 15.0892C26.6461 14.3107 25.8681 13.8271 25 13.8271C24.1318 13.8271 23.3539 14.3107 22.9696 15.0892L21.0564 18.9655C20.94 19.2016 20.7149 19.365 20.4546 19.4028L16.1765 20.0245C15.3174 20.1493 14.617 20.7397 14.3487 21.5654C14.0804 22.391 14.3 23.2804 14.9216 23.8863L18.0173 26.9037C18.2056 27.0873 18.2916 27.3518 18.2471 27.6112L17.5165 31.8718C17.3696 32.7273 17.7147 33.576 18.4172 34.0862C19.1193 34.5965 20.0331 34.6627 20.8016 34.2587L24.6281 32.2471C24.861 32.1246 25.139 32.1246 25.3719 32.2471L29.1984 34.2587C29.5327 34.4344 29.8943 34.5212 30.2542 34.5212C30.7217 34.5212 31.1861 34.3747 31.5829 34.0863C32.2852 33.5761 32.6304 32.7275 32.4836 31.872L31.7529 27.6113C31.7085 27.352 31.7944 27.0875 31.9828 26.9038L35.0784 23.8864C35.7 23.2805 35.9195 22.3912 35.6512 21.5655C35.3829 20.7397 34.6825 20.1492 33.8234 20.0245ZM34.0557 22.8374L30.9602 25.8547C30.4263 26.3749 30.183 27.1242 30.3091 27.8588L31.0397 32.1194C31.0923 32.4261 30.9734 32.7184 30.7218 32.9012C30.4699 33.0841 30.1552 33.1067 29.88 32.962L26.0535 30.9505C25.7236 30.7771 25.3618 30.6903 24.9999 30.6903C24.6381 30.6903 24.2761 30.7771 23.9463 30.9504L20.1198 32.962C19.8444 33.1067 19.5298 33.0841 19.278 32.9012C19.0263 32.7184 18.9075 32.4261 18.96 32.1193L19.6907 27.8588C19.8168 27.1241 19.5734 26.3749 19.0396 25.8547L15.944 22.8373C15.7213 22.6201 15.6456 22.3139 15.7418 22.018C15.8379 21.7221 16.0792 21.5187 16.387 21.4739L20.665 20.8522C21.4026 20.7451 22.0399 20.2821 22.3699 19.6137L24.2831 15.7373C24.4208 15.4583 24.6887 15.2918 24.9999 15.2918C25.311 15.2918 25.579 15.4584 25.7167 15.7373L27.6299 19.6138C27.9598 20.2821 28.5971 20.7452 29.3347 20.8522L33.6128 21.4739C33.9206 21.5187 34.1619 21.7221 34.258 22.018C34.3542 22.314 34.2786 22.6202 34.0557 22.8374Z" fill="#133244"/>
</g>
<defs>
<clipPath id="clip0_198_2">
<rect width="50" height="50" fill="white"/>
</clipPath>
</defs>
</svg>
