<svg width="50" height="50" viewBox="0 0 50 50" fill="none" xmlns="http://www.w3.org/2000/svg">
<path d="M1.91472 32.7879C2.16844 33.3504 2.73289 33.7139 3.35291 33.7139H4.9742V37.6478C4.9742 38.0522 5.30203 38.3802 5.70662 38.3802C6.11121 38.3802 6.43904 38.0522 6.43904 37.6478V33.7139H7.50408C8.28728 33.7139 8.94304 33.1534 9.06365 32.3812C9.19002 31.5718 9.52576 29.9936 10.3561 28.5177C10.5545 28.1651 10.4295 27.7186 10.077 27.5202C9.72449 27.322 9.27801 27.4469 9.07957 27.7994C8.13621 29.4761 7.75789 31.2482 7.61638 32.1554C7.60808 32.2088 7.55984 32.249 7.50418 32.249H3.35291C3.30779 32.249 3.26746 32.2242 3.25008 32.1857C2.09822 29.6315 1.44773 26.5897 1.46521 23.8403C1.48289 21.0447 2.14988 18.6183 3.26443 17.1088C3.28201 17.088 3.29842 17.0665 3.31326 17.0443C3.61844 16.6429 3.95594 16.3084 4.32234 16.0535C6.52967 14.5179 7.63543 14.8004 10.3071 15.4824C12.0595 15.9299 14.4595 16.5426 18.0833 16.825C23.3794 17.2367 26.0684 15.8259 27.8478 14.8922C28.2048 14.7049 28.5132 14.5432 28.7938 14.422C30.7385 13.5822 32.791 13.1007 34.4252 13.1007C36.191 13.1007 37.8667 13.6621 39.271 14.7242C39.5938 14.9683 40.0529 14.9046 40.2971 14.5818C40.541 14.2592 40.4773 13.7999 40.1547 13.5559C38.8343 12.5573 37.3111 11.9345 35.6933 11.7205V11.0352H36.1328C36.752 11.0352 37.2558 10.5313 37.2558 9.91211V4.63867C37.2558 4.01943 36.752 3.51562 36.1328 3.51562H33.789C33.1698 3.51562 32.666 4.01943 32.666 4.63867V4.82891C22.4751 4.93057 15.0119 7.13144 10.5107 8.98584C6.61902 10.5891 4.24519 12.1856 3.32117 12.867C3.05867 12.7414 2.77019 12.6729 2.47068 12.6729C1.94529 12.6729 1.44998 12.8781 1.07429 13.2522C0.306228 14.0219 0.306228 15.2742 1.07488 16.0444L1.75515 16.7246C0.650759 18.4831 0.0184348 20.9727 0.0003684 23.831C-0.0183816 26.7837 0.679372 30.0483 1.91472 32.7879ZM34.1308 4.98047H35.791V9.57031H34.1308V4.98047ZM11.1403 10.3107C15.5089 8.51992 22.7552 6.39443 32.666 6.29365V9.91211C32.666 10.5313 33.1698 11.0352 33.789 11.0352H34.2285V11.6392C32.4374 11.6748 30.2594 12.1935 28.213 13.077C27.8815 13.2202 27.5346 13.4022 27.1673 13.5949C25.439 14.5017 23.0719 15.7437 18.197 15.3645C14.6995 15.0919 12.3702 14.4973 10.6695 14.063C8.34676 13.47 6.79861 13.0751 4.72342 14.1075L4.46609 13.8502C5.4866 13.1326 7.71336 11.7156 11.1403 10.3107ZM2.11111 15.009C1.91248 14.8099 1.91248 14.4859 2.10945 14.2885C2.20711 14.1912 2.33533 14.1377 2.47058 14.1377C2.60691 14.1377 2.73504 14.1908 2.83152 14.2874L3.43338 14.8893C3.1617 15.0834 2.90388 15.3072 2.66062 15.5585L2.11111 15.009Z" fill="#BF9C5C"/>
<path d="M34.4253 15.2344C31.1676 15.2344 28.5171 17.8848 28.5171 21.1426C28.5171 24.4004 31.1676 27.0508 34.4253 27.0508C37.683 27.0508 40.3335 24.4004 40.3335 21.1426C40.3335 17.8848 37.683 15.2344 34.4253 15.2344ZM34.4253 25.5859C31.9752 25.5859 29.9819 23.5927 29.9819 21.1426C29.9819 18.6925 31.9752 16.6992 34.4253 16.6992C36.8754 16.6992 38.8687 18.6925 38.8687 21.1426C38.8687 23.5927 36.8754 25.5859 34.4253 25.5859Z" fill="#133244"/>
<path d="M47.8027 33.7139C49.0143 33.7139 50 32.7282 50 31.5166V16.4775C50 15.2659 49.0143 14.2803 47.8027 14.2803C46.5912 14.2803 45.6055 15.2659 45.6055 16.4775V21.7998H43.9319V21.1426C43.9319 19.3242 43.4168 17.5567 42.442 16.031C42.2243 15.69 41.7714 15.5903 41.4305 15.808C41.0896 16.0258 40.9897 16.4787 41.2076 16.8195C42.0316 18.1094 42.4671 19.6042 42.4671 21.1426L42.4668 25.4619C42.4668 25.4639 42.4671 25.4656 42.4671 25.4676V39.1602H28.9688C29.5983 37.4444 30.5834 33.8825 29.622 30.2584C28.7836 27.0978 27.4088 25.2927 25.1644 24.4059C23.1001 23.5901 20.5004 23.5927 16.9016 23.596L16.2037 23.5964C14.3096 23.5964 12.6614 24.1256 11.3053 25.1693C10.9848 25.416 10.9248 25.8759 11.1716 26.1965C11.4183 26.517 11.8779 26.5771 12.1987 26.3302C13.2928 25.4882 14.6403 25.0612 16.2038 25.0612L16.903 25.0608C23.8502 25.0536 26.7256 25.0517 28.2063 30.634C29.1676 34.2574 27.887 37.9488 27.3948 39.1602H2.19727C0.985742 39.1602 0 40.1458 0 41.3574C0 42.4356 0.780859 43.3343 1.80664 43.5192V45.752C1.80664 46.1564 2.13447 46.4844 2.53906 46.4844H28.1118C28.5164 46.4844 28.8442 46.1564 28.8442 45.752C28.8442 45.3475 28.5164 45.0195 28.1118 45.0195H3.27148V43.5547H46.7285V45.0195H31.2731C30.8686 45.0195 30.5407 45.3475 30.5407 45.752C30.5407 46.1564 30.8686 46.4844 31.2731 46.4844H47.4609C47.8655 46.4844 48.1934 46.1564 48.1934 45.752V43.5192C49.2191 43.3344 50 42.4356 50 41.3574C50 40.1458 49.0143 39.1602 47.8027 39.1602H43.9319V26.1943H45.6055V31.5166C45.6055 32.7282 46.5912 33.7139 47.8027 33.7139ZM48.5352 41.3574C48.5352 41.7613 48.2066 42.0898 47.8027 42.0898H2.19727C1.79336 42.0898 1.46484 41.7613 1.46484 41.3574C1.46484 40.9535 1.79336 40.625 2.19727 40.625H47.8027C48.2066 40.625 48.5352 40.9535 48.5352 41.3574ZM47.0703 16.4775C47.0703 16.0736 47.3988 15.7451 47.8027 15.7451C48.2066 15.7451 48.5352 16.0736 48.5352 16.4775V31.5166C48.5352 31.9205 48.2066 32.249 47.8027 32.249C47.3988 32.249 47.0703 31.9205 47.0703 31.5166V16.4775ZM43.9319 24.7295V23.2646H45.6055V24.7295H43.9319Z" fill="#BF9C5C"/>
</svg>
