<svg width="80" height="80" viewBox="0 0 80 80" fill="none" xmlns="http://www.w3.org/2000/svg">
<g clip-path="url(#clip0_170_31284)">
<path d="M6.22368 43.3975C5.23571 44.3852 4.69165 45.6997 4.69165 47.0994C4.69165 48.4991 5.23571 49.8136 6.22368 50.8011L11.5299 56.1049C12.5509 57.1253 13.8915 57.6355 15.2326 57.6355C16.5734 57.6353 17.9145 57.1252 18.9351 56.105L31.5371 43.5088C31.7571 43.2889 31.8806 42.9908 31.8806 42.6799C31.8806 42.3689 31.757 42.0708 31.5371 41.851L27.1606 37.4764C23.0215 33.3392 16.2871 33.3386 12.1487 37.4753L6.22368 43.3975ZM19.6537 36.7158C21.7721 36.7158 23.8907 37.5219 25.5037 39.1341L29.0509 42.6797L17.2782 54.4471C16.1502 55.5746 14.3148 55.5744 13.1868 54.4471L7.88056 49.1433C7.33556 48.5986 7.0354 47.8727 7.0354 47.0994C7.0354 46.3261 7.33556 45.6002 7.88056 45.0555L13.8057 39.133C15.4181 37.5216 17.5357 36.7158 19.6537 36.7158Z" fill="#133244"/>
<path d="M38.1699 48.4803C37.7124 48.023 36.9707 48.023 36.513 48.4803L23.9108 61.0766C22.9229 62.0641 22.3788 63.3788 22.3787 64.7783C22.3787 66.1778 22.9227 67.4925 23.9108 68.4802L29.2169 73.7838C30.2379 74.8042 31.5785 75.3144 32.9196 75.3144C34.2604 75.3144 35.6016 74.8041 36.6223 73.7838L38.3069 72.0999C38.7648 71.6422 38.7649 70.9002 38.3074 70.4424C37.8499 69.9846 37.1079 69.9844 36.6501 70.4419L34.9654 72.1258C33.8374 73.2535 32.0021 73.2535 30.874 72.1258L25.5679 66.8222C25.0229 66.2774 24.7226 65.5516 24.7226 64.7783C24.7226 64.005 25.0227 63.2792 25.5677 62.7344L37.3413 50.9663L40.8904 54.5136C42.4494 56.0721 43.3082 58.1478 43.3082 60.3585C43.3083 62.5692 42.4498 64.6449 40.8905 66.2033L40.1887 66.905C39.7309 67.3627 39.7307 68.1047 40.1882 68.5625C40.6458 69.0205 41.3879 69.0203 41.8455 68.5628L42.5474 67.8611C44.5494 65.8599 45.6521 63.1953 45.6519 60.3583C45.6519 57.5213 44.5493 54.8566 42.5473 52.8555L38.1699 48.4803Z" fill="#133244"/>
<path d="M77.4914 3.03783L77.3481 2.89423C77.3078 2.85376 77.2647 2.8172 77.2205 2.78267C77.1858 2.73829 77.1491 2.69517 77.1086 2.6547L76.9644 2.51048C73.6155 -0.836862 68.1666 -0.836549 64.8177 2.51048L39.6331 27.6794C39.1234 28.1891 38.7939 28.8369 38.6755 29.5308L38.3806 29.5088C38.0397 29.483 37.7052 29.6078 37.4638 29.8497L34.2583 33.0625C34.2375 33.0805 34.2166 33.0983 34.1967 33.118L31.8144 35.498L30.477 34.1613C28.5878 32.273 26.2334 30.9078 23.6684 30.2134C23.0436 30.0442 22.4002 30.4136 22.2309 31.0385C22.0619 31.6633 22.4313 32.3069 23.0561 32.4759C25.2267 33.0634 27.22 34.2195 28.8202 35.8191L30.9858 37.9836C31.4433 38.441 32.1847 38.4411 32.6425 37.9838L35.0248 35.6038L38.8945 39.4716L20.5945 57.7617C17.6377 60.7172 12.827 60.717 9.87047 57.7617L4.56437 52.4581C3.1325 51.027 2.34406 49.1241 2.34391 47.0997C2.34375 45.0752 3.13234 43.1721 4.56437 41.7406L10.4895 35.8181C12.628 33.6808 15.4616 32.3525 18.4684 32.0784C19.113 32.0195 19.5878 31.4494 19.5291 30.8049C19.4703 30.1603 18.9008 29.6853 18.2556 29.7441C14.7042 30.068 11.3578 31.6364 8.83281 34.1603L2.9075 40.0828C1.03234 41.9569 -0.000156232 44.4489 1.77316e-08 47.0999C0.000156268 49.7505 1.03266 52.2422 2.9075 54.1161L8.21359 59.4197C10.1489 61.3542 12.6903 62.3213 15.2327 62.3211C16.2031 62.321 17.1734 62.1789 18.1103 61.8969C17.8317 62.8194 17.6872 63.7881 17.6873 64.7789C17.6875 67.4294 18.72 69.9213 20.5948 71.795L25.9009 77.0988C27.8358 79.0328 30.3778 80 32.9197 80C35.4617 80 38.0036 79.0328 39.9388 77.0986L45.8639 71.1761C48.7544 68.2869 50.3464 64.4453 50.3466 60.3589C50.3467 56.2724 48.7547 52.4303 45.8639 49.5408L44.5267 48.2042L46.9078 45.8255C46.9256 45.8077 46.9419 45.7885 46.9583 45.7697L50.1703 42.5605C50.4119 42.3192 50.5361 41.9847 50.5108 41.6442L50.4886 41.3469C51.1827 41.2281 51.8302 40.9003 52.3387 40.391L72.3291 20.3625C72.7862 19.9044 72.7856 19.1624 72.3275 18.705C71.8691 18.2475 71.1272 18.2485 70.67 18.7066L50.6798 38.7353C50.4528 38.9627 50.1391 39.0767 49.8198 39.052L45.6686 38.7144C46.2047 38.5474 46.6963 38.2528 47.1045 37.8442C48.4744 36.4734 48.4744 34.243 47.1045 32.8722C46.9559 32.7236 46.795 32.5924 46.6264 32.4744L47.4512 32.5359C48.4505 32.6111 49.4295 32.2466 50.1372 31.5372L76.3466 5.27626C78.2519 7.72673 78.0806 11.2828 75.8327 13.5345L74.218 15.1524C73.7608 15.6105 73.7616 16.3527 74.2197 16.8099C74.6777 17.2672 75.4197 17.2664 75.877 16.8083L77.4916 15.1906C80.8363 11.84 80.8363 6.38829 77.4914 3.03783ZM48.0027 60.3589C48.0025 63.8189 46.6545 67.0717 44.2069 69.5183L38.2817 75.4408C35.3252 78.396 30.5144 78.3961 27.5575 75.4408L22.2514 70.137C20.8197 68.706 20.0311 66.803 20.0309 64.7786C20.0308 62.7541 20.8194 60.851 22.2514 59.4195L40.5522 41.1288L44.4214 44.9963L42.0403 47.375C41.8203 47.5949 41.6967 47.893 41.6967 48.2041C41.6967 48.515 41.8202 48.8133 42.0402 49.0331L44.2069 51.1988C46.6547 53.6456 48.0028 56.8988 48.0027 60.3589ZM46.078 43.3363L43.6419 40.9014L48.1322 41.2666L48.1334 41.2827L46.078 43.3363ZM45.4466 36.1872C45.2255 36.4085 44.9316 36.5303 44.6191 36.5303C44.3066 36.5303 44.0127 36.4085 43.7916 36.1872C43.3348 35.73 43.3348 34.9864 43.7916 34.5292C44.0127 34.308 44.3066 34.1861 44.6191 34.1861C44.9316 34.1861 45.2255 34.308 45.4466 34.5292C45.9033 34.9864 45.9033 35.7302 45.4466 36.1872ZM42.1338 37.8442C42.4048 38.1156 42.7139 38.3341 43.047 38.5013L41.0795 38.3413L36.6902 33.9435L38.7428 31.8863L43.0613 32.2085C42.7227 32.3764 42.4086 32.597 42.1336 32.8722C40.7639 34.2431 40.7639 36.4734 42.1338 37.8442ZM48.4781 29.8814C48.2533 30.1067 47.9428 30.2216 47.6256 30.1986L41.0475 29.7078C41.1019 29.571 41.1831 29.4444 41.2902 29.3374L66.4745 4.16845C68.7119 1.93236 72.2372 1.7522 74.6836 3.62423L48.4781 29.8814Z" fill="#BF9C5C"/>
</g>
<defs>
<clipPath id="clip0_170_31284">
<rect width="80" height="80" fill="white"/>
</clipPath>
</defs>
</svg>
