<svg width="80" height="80" viewBox="0 0 80 80" fill="none" xmlns="http://www.w3.org/2000/svg">
<g clip-path="url(#clip0_170_31266)">
<path d="M78.848 52.5048C78.6491 52.5016 58.898 52.1688 53.8187 52.1688C52.2133 52.1688 50.5475 51.8869 48.8681 51.3312C47.0684 50.7355 45.8592 49.0647 45.8592 47.1736V46.0384C47.2738 45.5102 48.6187 44.7873 49.8637 43.8781C50.3866 43.4966 50.5008 42.7633 50.1191 42.2408C49.7373 41.718 49.0042 41.6037 48.4817 41.9855C46.0106 43.7902 43.0812 44.7439 40.0109 44.7439H39.9891C32.06 44.7439 25.6094 38.2925 25.6094 30.3627V25.2398C26.4231 23.3658 28.0208 20.9966 29.1028 21.1434C35.9797 22.0667 41.1778 21.2222 44.5523 18.6333C45.2148 18.1252 45.7419 17.5938 46.1603 17.0802C47.0547 18.587 48.5448 19.6911 49.7589 20.5908C50.0292 20.7909 50.2845 20.9802 50.5208 21.1637C53.0639 23.1403 54.0814 24.8031 54.3905 25.398V30.3628C54.3905 33.3772 53.4687 36.2623 51.7245 38.7064C51.3487 39.2333 51.4709 39.9652 51.9978 40.3411C52.2042 40.4883 52.442 40.5592 52.6775 40.5592C53.0434 40.5592 53.4037 40.3883 53.6325 40.0678C54.7339 38.5242 55.5509 36.8289 56.07 35.0416C56.5667 35.2242 57.0858 35.3189 57.6155 35.3189C60.4447 35.3189 62.4983 32.3061 62.4983 28.1548C62.4983 24.6225 60.9253 22.2225 58.4241 21.8022C59.0509 19.9108 59.5972 17.4544 59.5972 14.6334C59.5972 11.1527 58.5895 8.415 56.6019 6.49672C54.2327 4.20984 51.1731 3.80359 49.917 3.73656C48.8112 2.63047 45.387 0 37.8384 0C33.3989 0 29.6983 0.962969 26.8391 2.86203C26.3 3.22 26.1533 3.94734 26.5112 4.48641C26.8694 5.02562 27.5966 5.17234 28.1358 4.81422C30.6039 3.175 33.8684 2.34375 37.8384 2.34375C45.7066 2.34375 48.3158 5.43391 48.4412 5.58938C48.6662 5.91531 49.0261 6.07672 49.4245 6.06812C49.4561 6.06672 52.7286 5.99984 54.9906 8.19875C56.4922 9.65812 57.2534 11.823 57.2534 14.6333C57.2534 18.1522 56.2817 21.0734 55.5186 22.825C54.7972 21.8687 53.6744 20.6461 51.9591 19.3128C51.7017 19.1128 51.4356 18.9158 51.1542 18.7072C49.035 17.137 47.5489 15.8761 47.7292 13.9414C47.7875 13.3164 47.3441 12.7502 46.7223 12.6652C46.0994 12.5795 45.5231 12.9941 45.4116 13.6116C45.3969 13.6831 45.0297 15.3825 42.9775 16.8845C40.9992 18.333 37.0406 19.8444 29.4145 18.8203C27.0284 18.4994 25.1827 21.0183 24.1639 22.8702C23.7395 22.0917 23.2517 20.8212 22.9344 18.8067C22.6377 16.9228 22.2395 12.0992 24.945 8.0075C25.302 7.46766 25.1538 6.74062 24.6139 6.38359C24.0741 6.02641 23.347 6.17484 22.99 6.71469C19.8316 11.4914 20.2798 17.0173 20.6191 19.1714C20.7845 20.2217 20.9959 21.1144 21.2313 21.8755C18.9313 22.4511 17.5013 24.7877 17.5013 28.1547C17.5013 32.3058 19.5548 35.3187 22.3841 35.3187C22.9147 35.3187 23.4345 35.2236 23.932 35.0405C25.4114 40.1114 29.2323 44.193 34.1405 46.0314V47.1736C34.1405 49.0648 32.9312 50.7356 31.1317 51.3312C29.4522 51.887 27.7867 52.1688 26.1811 52.1688C21.1019 52.1688 1.35078 52.5016 1.15188 52.5048C0.512656 52.5158 0 53.0372 0 53.6766V62.6937C0 63.3411 0.524687 63.8656 1.17188 63.8656H15.8828C16.9261 63.8656 17.775 64.7145 17.775 65.7577V71.4062H11.0938C10.4466 71.4062 9.92188 71.9308 9.92188 72.5781V78.8281C9.92188 79.4755 10.4466 80 11.0938 80H25.0228C25.67 80 26.1947 79.4755 26.1947 78.8281C26.1947 78.1808 25.67 77.6562 25.0228 77.6562H12.2656V73.75H15.4688V74.5734C15.4688 75.2208 15.9934 75.7453 16.6406 75.7453C17.2878 75.7453 17.8125 75.2208 17.8125 74.5734V73.75H21.3086V74.5734C21.3086 75.2208 21.8333 75.7453 22.4805 75.7453C23.1277 75.7453 23.6523 75.2208 23.6523 74.5734V73.75H27.1484V74.5734C27.1484 75.2208 27.6731 75.7453 28.3203 75.7453C28.9675 75.7453 29.4922 75.2208 29.4922 74.5734V73.75H32.9883V74.5734C32.9883 75.2208 33.513 75.7453 34.1602 75.7453C34.8073 75.7453 35.332 75.2208 35.332 74.5734V73.75H38.8281V74.5734C38.8281 75.2208 39.3528 75.7453 40 75.7453C40.6473 75.7453 41.1719 75.2208 41.1719 74.5734V73.75H44.668V74.5734C44.668 75.2208 45.1925 75.7453 45.8398 75.7453C46.4872 75.7453 47.0117 75.2208 47.0117 74.5734V73.75H50.5078V74.5734C50.5078 75.2208 51.0323 75.7453 51.6797 75.7453C52.327 75.7453 52.8516 75.2208 52.8516 74.5734V73.75H56.3477V74.5734C56.3477 75.2208 56.8722 75.7453 57.5195 75.7453C58.1669 75.7453 58.6914 75.2208 58.6914 74.5734V73.75H62.1875V74.5734C62.1875 75.2208 62.712 75.7453 63.3594 75.7453C64.0067 75.7453 64.5312 75.2208 64.5312 74.5734V73.75H67.7344V77.6562H30.052C29.4048 77.6562 28.8802 78.1808 28.8802 78.8281C28.8802 79.4755 29.4048 80 30.052 80H68.9062C69.5536 80 70.0781 79.4755 70.0781 78.8281V72.5781C70.0781 71.9308 69.5536 71.4062 68.9062 71.4062H62.225V65.7578C62.225 64.7145 63.0739 63.8658 64.117 63.8658H78.828C79.4753 63.8658 79.9998 63.3413 79.9998 62.6939V53.6767C80 53.0372 79.4873 52.5158 78.848 52.5048ZM57.6156 24.0797C59.4877 24.0797 60.1547 26.1847 60.1547 28.1547C60.1547 30.5241 59.205 32.975 57.6156 32.975C57.2113 32.975 56.8597 32.8553 56.57 32.6994C56.6772 31.9305 56.7342 31.1506 56.7342 30.3625V25.6317C56.9008 25.3481 57.1931 24.8198 57.5302 24.0827C57.5588 24.0816 57.587 24.0797 57.6156 24.0797ZM22.3844 32.975C20.795 32.975 19.8453 30.5241 19.8453 28.1547C19.8453 26.2675 20.4581 24.258 22.1552 24.092C22.5525 24.8019 22.9464 25.2695 23.2656 25.5714V30.3625C23.2656 31.1556 23.3223 31.9356 23.4297 32.6995C23.1402 32.8555 22.7886 32.975 22.3844 32.975ZM77.6562 61.5219H64.1172C61.7816 61.5219 59.8814 63.422 59.8814 65.7577V71.4062H20.1187V65.7578C20.1187 63.4222 18.2184 61.522 15.8828 61.522H2.34375V54.8292C6.66031 54.758 21.8347 54.5127 26.1812 54.5127C28.0373 54.5127 29.9508 54.1909 31.8683 53.5564C34.6292 52.6425 36.4844 50.0773 36.4844 47.1736V46.717C37.615 46.9591 38.7872 47.0877 39.9891 47.0877H40.0109C41.2022 47.0877 42.3745 46.9613 43.5156 46.7188V47.1736C43.5156 50.0775 45.3708 52.6425 48.1319 53.5564C50.0492 54.1911 51.9627 54.5127 53.8187 54.5127C58.1652 54.5127 73.3395 54.758 77.6562 54.8292V61.5219Z" fill="#BF9C5C"/>
<path d="M41.8459 36.7037C40.7418 37.012 39.2585 37.012 38.1545 36.7037C37.5312 36.5295 36.8848 36.8939 36.7107 37.5173C36.5366 38.1406 36.9009 38.7872 37.5243 38.9611C38.2879 39.1742 39.1442 39.2809 40.0002 39.2809C40.8563 39.2809 41.7126 39.1742 42.4762 38.9611C43.0996 38.787 43.4638 38.1406 43.2898 37.5173C43.1156 36.8941 42.4693 36.5298 41.8459 36.7037Z" fill="#133244"/>
<path d="M32.2656 28.75V29.6875C32.2656 30.3348 32.7903 30.8594 33.4375 30.8594C34.0847 30.8594 34.6094 30.3348 34.6094 29.6875V28.75C34.6094 28.1027 34.0847 27.5781 33.4375 27.5781C32.7903 27.5781 32.2656 28.1027 32.2656 28.75Z" fill="#133244"/>
<path d="M45.3906 28.75V29.6875C45.3906 30.3348 45.9152 30.8594 46.5625 30.8594C47.2098 30.8594 47.7344 30.3348 47.7344 29.6875V28.75C47.7344 28.1027 47.2098 27.5781 46.5625 27.5781C45.9152 27.5781 45.3906 28.1027 45.3906 28.75Z" fill="#133244"/>
<path d="M27.864 67.2777C26.3712 67.2777 24.9506 65.8092 24.5314 65.2464C24.1481 64.7247 23.4146 64.6125 22.8932 64.9956C22.3717 65.3787 22.2593 66.1122 22.6426 66.6337C22.7321 66.7558 24.8715 69.6214 27.864 69.6214C28.5112 69.6214 29.0359 69.0969 29.0359 68.4495C29.0359 67.8022 28.5112 67.2777 27.864 67.2777Z" fill="#133244"/>
<path d="M50.9641 68.4495C50.9641 69.0969 51.4886 69.6214 52.136 69.6214C55.1286 69.6214 57.2679 66.7558 57.3575 66.6338C57.7397 66.1134 57.6277 65.3835 57.1086 64.9995C56.5902 64.6156 55.8565 64.7255 55.4708 65.2433C55.0494 65.8092 53.6288 67.2778 52.136 67.2778C51.4886 67.2777 50.9641 67.8024 50.9641 68.4495Z" fill="#133244"/>
</g>
<defs>
<clipPath id="clip0_170_31266">
<rect width="80" height="80" fill="white"/>
</clipPath>
</defs>
</svg>
