<svg width="80" height="80" viewBox="0 0 80 80" fill="none" xmlns="http://www.w3.org/2000/svg">
<path d="M13.4375 56.1648C14.0848 56.1648 14.6094 55.6403 14.6094 54.993V24.2281C14.6094 18.4909 19.2769 13.8234 25.0141 13.8234H28.9089C29.5498 16.3245 31.0144 20.5517 33.7439 21.5089C34.2838 21.6983 34.8162 21.7791 35.3334 21.7791C37.2877 21.7787 39.012 20.622 40 19.7898C40.9878 20.6222 42.7123 21.7791 44.6667 21.7791C45.1838 21.7791 45.7167 21.698 46.2563 21.5089C48.9858 20.5519 50.4503 16.3247 51.0913 13.8234H54.9861C56.9756 13.8234 58.9092 14.3866 60.5777 15.4519C60.773 15.5767 60.9913 15.6362 61.2072 15.6362C61.5939 15.6362 61.9723 15.445 62.1959 15.0948C62.5442 14.5494 62.3844 13.8248 61.8389 13.4766C59.7931 12.1703 57.4234 11.4798 54.9861 11.4798H50.4169C50.3445 11.4156 50.2686 11.3545 50.1872 11.2994L45.3403 8.01266C45.3403 8.01266 45.3402 8.01266 45.3402 8.01281C45.1528 7.88563 44.9266 7.81125 44.683 7.81125H43.5158V7.07953C44.0791 6.33844 44.4142 5.41484 44.4142 4.41422C44.4141 1.98016 42.4339 0 40 0C37.5661 0 35.5859 1.98016 35.5859 4.41406C35.5859 5.41469 35.9211 6.33812 36.4844 7.07937V7.81109H35.3172C35.0736 7.81109 34.8473 7.88563 34.6598 8.01281V8.01266L29.8128 11.2994C29.7314 11.3547 29.6555 11.4156 29.5831 11.4798H25.0141C17.9845 11.4798 12.2656 17.1988 12.2656 24.2283V54.9933C12.2656 55.6403 12.7902 56.1648 13.4375 56.1648ZM34.5194 19.2972C33.3187 18.8762 32.0067 16.4892 31.1709 13.2102L34.2591 11.1159C34.5403 13.1392 35.4253 16.1295 38.1061 18.2956C37.19 18.9839 35.7983 19.7447 34.5194 19.2972ZM40 16.7848C38.8036 15.9398 38.0091 14.8834 37.4853 13.8234H42.5147C41.9911 14.8833 41.1964 15.9398 40 16.7848ZM41.1719 11.4797H38.8281V8.66891C39.2016 8.77187 39.5942 8.82812 40 8.82812C40.4058 8.82812 40.7984 8.77203 41.1719 8.66891V11.4797ZM45.4806 19.2972C44.2022 19.7456 42.8097 18.9838 41.8937 18.2956C44.5745 16.1295 45.4597 13.1392 45.7409 11.1159L48.8291 13.2102C47.9931 16.4894 46.6812 18.8762 45.4806 19.2972ZM40 2.34375C41.1416 2.34375 42.0703 3.2725 42.0703 4.41406C42.0703 5.55562 41.1416 6.48438 40 6.48438C38.8584 6.48438 37.9297 5.55562 37.9297 4.41406C37.9297 3.2725 38.8584 2.34375 40 2.34375Z" fill="#BF9C5C"/>
<path d="M65.7255 17.3561C65.3763 16.8111 64.6513 16.6527 64.1066 17.0021C63.5617 17.3513 63.4031 18.0761 63.7525 18.621C64.8241 20.2927 65.3906 22.2314 65.3906 24.228V66.5499H57.4219V26.8289C57.4219 26.1816 56.8973 25.6571 56.25 25.6571C55.6027 25.6571 55.0781 26.1816 55.0781 26.8289V66.55H24.9219V26.8289C24.9219 26.1816 24.3973 25.6571 23.75 25.6571C23.1027 25.6571 22.5781 26.1816 22.5781 26.8289V66.55H14.6094V59.964C14.6094 59.3166 14.0848 58.7921 13.4375 58.7921C12.7902 58.7921 12.2656 59.3166 12.2656 59.964V67.7219C12.2656 68.3693 12.7902 68.8938 13.4375 68.8938H23.7348C23.7398 68.8938 23.7448 68.8946 23.75 68.8946C23.7552 68.8946 23.76 68.8939 23.7652 68.8938H34.1406V78.8282C34.1406 79.4755 34.6652 80 35.3125 80H44.6875C45.3348 80 45.8594 79.4755 45.8594 78.8282V75.0075C45.8594 74.3602 45.3348 73.8357 44.6875 73.8357C44.0402 73.8357 43.5156 74.3602 43.5156 75.0075V77.6563H36.4844V68.8946H43.5156V70.0075C43.5156 70.6549 44.0402 71.1794 44.6875 71.1794C45.3348 71.1794 45.8594 70.6549 45.8594 70.0075V68.8938H56.2348C56.2398 68.8938 56.2448 68.8946 56.25 68.8946C56.2552 68.8946 56.26 68.8939 56.2652 68.8938H66.5625C67.2098 68.8938 67.7344 68.3693 67.7344 67.7219V24.2282C67.7344 21.7824 67.0397 19.4061 65.7255 17.3561Z" fill="#BF9C5C"/>
<path d="M40 25.8431C37.9753 25.8431 36.3281 27.4903 36.3281 29.515C36.3281 31.5397 37.9753 33.1869 40 33.1869C42.0247 33.1869 43.6719 31.5397 43.6719 29.515C43.6719 27.4903 42.0247 25.8431 40 25.8431ZM40 30.8431C39.2677 30.8431 38.6719 30.2474 38.6719 29.515C38.6719 28.7827 39.2677 28.1869 40 28.1869C40.7323 28.1869 41.3281 28.7827 41.3281 29.515C41.3281 30.2474 40.7323 30.8431 40 30.8431Z" fill="#133244"/>
<path d="M40 38.7582C37.9753 38.7582 36.3281 40.4054 36.3281 42.4301C36.3281 44.4547 37.9753 46.1019 40 46.1019C42.0247 46.1019 43.6719 44.4547 43.6719 42.4301C43.6719 40.4054 42.0247 38.7582 40 38.7582ZM40 43.7582C39.2677 43.7582 38.6719 43.1624 38.6719 42.4301C38.6719 41.6977 39.2677 41.1019 40 41.1019C40.7323 41.1019 41.3281 41.6977 41.3281 42.4301C41.3281 43.1624 40.7323 43.7582 40 43.7582Z" fill="#133244"/>
<path d="M40 51.6731C37.9753 51.6731 36.3281 53.3203 36.3281 55.345C36.3281 57.3697 37.9753 59.0168 40 59.0168C42.0247 59.0168 43.6719 57.3697 43.6719 55.345C43.6719 53.3203 42.0247 51.6731 40 51.6731ZM40 56.6731C39.2677 56.6731 38.6719 56.0773 38.6719 55.345C38.6719 54.6126 39.2677 54.0168 40 54.0168C40.7323 54.0168 41.3281 54.6126 41.3281 55.345C41.3281 56.0773 40.7323 56.6731 40 56.6731Z" fill="#133244"/>
</svg>
