<svg width="24" height="24" viewBox="0 0 24 24" fill="none" xmlns="http://www.w3.org/2000/svg">
<g clip-path="url(#clip0_239_220)">
<path d="M12.0006 13.7143C14.3675 13.7143 16.2863 11.7955 16.2863 9.42857C16.2863 7.06163 14.3675 5.14285 12.0006 5.14285C9.63362 5.14285 7.71484 7.06163 7.71484 9.42857C7.71484 11.7955 9.63362 13.7143 12.0006 13.7143Z" stroke="#BF9C5C" stroke-width="1.5" stroke-linecap="round" stroke-linejoin="round"/>
<path d="M3.59961 23.1429C3.99306 21.2052 5.04429 19.4632 6.57517 18.2119C8.10604 16.9607 10.0224 16.2771 11.9996 16.2771C13.9768 16.2771 15.8932 16.9607 17.4241 18.2119C18.9549 19.4632 20.0062 21.2052 20.3996 23.1429" stroke="#BF9C5C" stroke-width="1.5" stroke-linecap="round" stroke-linejoin="round"/>
<path d="M21.4289 0.857147H2.57171C1.62493 0.857147 0.857422 1.62466 0.857422 2.57143V21.4286C0.857422 22.3753 1.62493 23.1429 2.57171 23.1429H21.4289C22.3756 23.1429 23.1431 22.3753 23.1431 21.4286V2.57143C23.1431 1.62466 22.3756 0.857147 21.4289 0.857147Z" stroke="#BF9C5C" stroke-width="1.5" stroke-linecap="round" stroke-linejoin="round"/>
</g>
<defs>
<clipPath id="clip0_239_220">
<rect width="24" height="24" fill="white"/>
</clipPath>
</defs>
</svg>
