<svg width="25" height="25" viewBox="0 0 25 25" fill="none" xmlns="http://www.w3.org/2000/svg">
<path d="M14.635 6.2498C15.6524 6.44831 16.5874 6.9459 17.3204 7.6789C18.0535 8.41189 18.5511 9.34694 18.7496 10.3644M14.635 2.08313C16.7488 2.31796 18.72 3.26456 20.2248 4.76752C21.7297 6.27046 22.6788 8.24043 22.9163 10.354M10.6526 14.4405C9.40102 13.1889 8.4127 11.7735 7.68771 10.2636C7.62534 10.1337 7.59416 10.0687 7.57021 9.98657C7.48508 9.69454 7.54623 9.33593 7.72332 9.08861C7.77315 9.01901 7.8327 8.95947 7.95177 8.8404C8.31594 8.47622 8.49803 8.29414 8.61707 8.11104C9.06603 7.42052 9.06603 6.53034 8.61707 5.83983C8.49803 5.65672 8.31594 5.47464 7.95177 5.11046L7.74878 4.90747C7.1952 4.35389 6.91839 4.0771 6.62112 3.92674C6.02991 3.62771 5.33173 3.62771 4.74052 3.92674C4.44325 4.0771 4.16645 4.35389 3.61286 4.90747L3.44866 5.07168C2.89697 5.62337 2.62112 5.89921 2.41045 6.27425C2.17668 6.6904 2.00859 7.33674 2.01002 7.81407C2.01129 8.24421 2.09474 8.5382 2.26162 9.12616C3.15847 12.2859 4.85062 15.2676 7.3381 17.755C9.82558 20.2425 12.8072 21.9347 15.967 22.8316C16.5549 22.9984 16.849 23.0819 17.2791 23.0831C17.7564 23.0846 18.4027 22.9165 18.8189 22.6827C19.194 22.472 19.4698 22.1961 20.0215 21.6445L20.1856 21.4803C20.7393 20.9267 21.0161 20.6499 21.1664 20.3526C21.4654 19.7615 21.4654 19.0632 21.1664 18.472C21.0161 18.1748 20.7393 17.8979 20.1856 17.3444L19.9827 17.1414C19.6186 16.7772 19.4365 16.5951 19.2534 16.476C18.5628 16.0271 17.6726 16.0271 16.9821 16.476C16.799 16.5951 16.6169 16.7772 16.2527 17.1414C16.1337 17.2604 16.0742 17.32 16.0045 17.3698C15.7572 17.547 15.3987 17.6081 15.1066 17.5229C15.0244 17.499 14.9595 17.4678 14.8296 17.4054C13.3196 16.6804 11.9043 15.6921 10.6526 14.4405Z" stroke="white" stroke-width="2" stroke-linecap="round" stroke-linejoin="round"/>
</svg>
