<svg width="30" height="30" viewBox="0 0 30 30" fill="none" xmlns="http://www.w3.org/2000/svg">
<path d="M24.6429 10.7141C24.6429 16.0499 15 28.9284 15 28.9284C15 28.9284 5.35718 16.0499 5.35718 10.7141C5.35718 8.1567 6.37312 5.704 8.1815 3.89562C9.98989 2.08723 12.4426 1.07129 15 1.07129C17.5575 1.07129 20.0102 2.08723 21.8186 3.89562C23.6269 5.704 24.6429 8.1567 24.6429 10.7141V10.7141Z" stroke="white" stroke-width="1.5" stroke-linecap="round" stroke-linejoin="round"/>
<path d="M14.9999 13.9286C16.7751 13.9286 18.2142 12.4895 18.2142 10.7143C18.2142 8.93908 16.7751 7.5 14.9999 7.5C13.2247 7.5 11.7856 8.93908 11.7856 10.7143C11.7856 12.4895 13.2247 13.9286 14.9999 13.9286Z" stroke="white" stroke-width="1.5" stroke-linecap="round" stroke-linejoin="round"/>
</svg>
