<svg width="141" height="50" viewBox="0 0 141 50" fill="none" xmlns="http://www.w3.org/2000/svg">
<path d="M68.6014 36V18.78H62.6014V15H78.8014V18.78H72.8014V36H68.6014ZM83.4692 36.39C82.0492 36.39 80.7492 36.03 79.5692 35.31C78.4092 34.57 77.4792 33.59 76.7792 32.37C76.0992 31.13 75.7592 29.76 75.7592 28.26C75.7592 27.14 75.9592 26.09 76.3592 25.11C76.7592 24.11 77.3092 23.24 78.0092 22.5C78.7092 21.74 79.5192 21.15 80.4392 20.73C81.3792 20.29 82.3892 20.07 83.4692 20.07C84.8292 20.07 85.8892 20.33 86.6492 20.85C87.4092 21.35 87.9992 22.02 88.4192 22.86V20.4H92.4392V36H88.5092V33.45C88.0892 34.33 87.4892 35.04 86.7092 35.58C85.9492 36.12 84.8692 36.39 83.4692 36.39ZM84.1292 32.73C85.0292 32.73 85.7992 32.53 86.4392 32.13C87.0992 31.71 87.6092 31.16 87.9692 30.48C88.3292 29.8 88.5092 29.06 88.5092 28.26C88.5092 27.44 88.3292 26.69 87.9692 26.01C87.6092 25.33 87.0992 24.78 86.4392 24.36C85.7992 23.94 85.0292 23.73 84.1292 23.73C83.2692 23.73 82.5092 23.94 81.8492 24.36C81.2092 24.76 80.7092 25.3 80.3492 25.98C79.9892 26.66 79.8092 27.41 79.8092 28.23C79.8092 29.01 79.9892 29.75 80.3492 30.45C80.7092 31.13 81.2092 31.68 81.8492 32.1C82.5092 32.52 83.2692 32.73 84.1292 32.73ZM96.8555 19.11C96.1755 19.11 95.5955 18.88 95.1155 18.42C94.6555 17.94 94.4255 17.37 94.4255 16.71C94.4255 16.07 94.6555 15.52 95.1155 15.06C95.5955 14.58 96.1755 14.34 96.8555 14.34C97.5555 14.34 98.1355 14.58 98.5955 15.06C99.0555 15.52 99.2855 16.07 99.2855 16.71C99.2855 17.39 99.0555 17.96 98.5955 18.42C98.1355 18.88 97.5555 19.11 96.8555 19.11ZM94.8455 36V20.4H98.8955V36H94.8455ZM101.291 36V14.1H105.341V36H101.291ZM114.846 36.39C113.426 36.39 112.126 36.03 110.946 35.31C109.786 34.57 108.856 33.59 108.156 32.37C107.476 31.13 107.136 29.76 107.136 28.26C107.136 27.14 107.336 26.09 107.736 25.11C108.136 24.11 108.686 23.24 109.386 22.5C110.086 21.74 110.896 21.15 111.816 20.73C112.756 20.29 113.766 20.07 114.846 20.07C116.206 20.07 117.266 20.33 118.026 20.85C118.786 21.35 119.376 22.02 119.796 22.86V20.4H123.816V36H119.886V33.45C119.466 34.33 118.866 35.04 118.086 35.58C117.326 36.12 116.246 36.39 114.846 36.39ZM115.506 32.73C116.406 32.73 117.176 32.53 117.816 32.13C118.476 31.71 118.986 31.16 119.346 30.48C119.706 29.8 119.886 29.06 119.886 28.26C119.886 27.44 119.706 26.69 119.346 26.01C118.986 25.33 118.476 24.78 117.816 24.36C117.176 23.94 116.406 23.73 115.506 23.73C114.646 23.73 113.886 23.94 113.226 24.36C112.586 24.76 112.086 25.3 111.726 25.98C111.366 26.66 111.186 27.41 111.186 28.23C111.186 29.01 111.366 29.75 111.726 30.45C112.086 31.13 112.586 31.68 113.226 32.1C113.886 32.52 114.646 32.73 115.506 32.73ZM126.222 36V20.4H130.152V23.37C130.412 22.25 130.942 21.4 131.742 20.82C132.542 20.22 133.622 19.96 134.982 20.04V23.85H134.412C133.252 23.85 132.272 24.22 131.472 24.96C130.672 25.7 130.272 26.72 130.272 28.02V36H126.222Z" fill="white"/>
<path d="M136.703 36.39C135.923 36.39 135.273 36.13 134.753 35.61C134.253 35.09 134.003 34.47 134.003 33.75C134.003 33.05 134.253 32.44 134.753 31.92C135.273 31.4 135.923 31.14 136.703 31.14C137.483 31.14 138.123 31.4 138.623 31.92C139.123 32.44 139.373 33.05 139.373 33.75C139.373 34.47 139.123 35.09 138.623 35.61C138.123 36.13 137.483 36.39 136.703 36.39Z" fill="#BF9C5C"/>
<rect width="50" height="50" rx="25" fill="#BF9C5C"/>
<path d="M10.0983 35.019C10.233 35.019 30.4177 35.0193 40.3653 35.0076C40.6846 35.0071 40.7039 35.1466 40.743 35.3886C40.9954 36.9488 39.97 38.5291 38.4363 38.8989C38.1831 38.9599 21.3627 38.9693 13.2172 39C10.9285 39.0084 9.61924 36.7477 10.0983 35.019Z" fill="white"/>
<path d="M10.3779 34.2296C10.5625 33.5007 11.231 32.953 11.9874 32.9382C12.8811 32.9206 14.831 32.9372 14.8736 32.9793C15.2748 33.3743 15.6677 33.7778 16.1128 34.2296C14.1538 34.2296 12.2765 34.2296 10.3779 34.2296Z" fill="white"/>
<path d="M38.6091 32.931C38.1289 32.9278 37.6483 32.9305 37.1259 32.9305C37.1259 32.6835 37.1259 32.4737 37.1259 32.2642C37.1269 30.2304 37.1339 28.1965 37.1257 26.1627C37.123 25.4882 37.2307 24.8482 37.5292 24.2374C37.7132 23.8604 37.876 23.4713 38.0228 23.0779C38.7877 21.0275 38.4645 19.1616 37.0078 17.5261C36.1758 16.5918 35.0834 16.0838 33.8811 15.7917C33.8006 15.7722 33.6758 15.6842 33.6748 15.6263C33.6612 14.8084 33.6656 13.99 33.6656 13.1649C33.7677 13.154 33.8593 13.1488 33.9453 13.1419H34.2819C34.7775 13.1419 35.1793 12.7401 35.1793 12.2445C35.1793 11.7488 34.7775 11.3471 34.2819 11.3471H31.4763C30.9806 11.3471 30.5789 11.7488 30.5789 12.2445C30.5789 12.7401 30.9806 13.1419 31.4763 13.1419H31.824C31.9082 13.1486 31.9927 13.1553 32.0747 13.1617C32.0747 13.9806 32.0747 14.7747 32.0747 15.5762C31.9888 15.5834 31.9268 15.5889 31.8649 15.5938C29.9983 15.7404 28.1316 15.8858 26.2653 16.0342C24.7652 16.1536 23.2672 16.3042 21.7652 16.3879C20.8517 16.4387 19.9342 16.3882 19.0437 16.114C17.8008 15.7313 16.917 14.9917 16.5732 13.6947C16.5492 13.6038 16.5163 13.5137 16.4769 13.4282C16.3312 13.1124 16.092 12.9375 15.7338 12.9442C15.6575 12.9457 15.581 12.9457 15.5029 12.9455V11.8799C15.5029 11.3939 15.1091 11.0001 14.6231 11.0001C14.613 11.0001 14.6031 11.0013 14.5932 11.0015C14.5852 11.0013 14.5778 11.0003 14.5699 11.0001C14.4592 10.9986 14.3613 11.0253 14.2761 11.0714C13.963 11.2061 13.7436 11.5172 13.7436 11.8796V12.9442C13.6324 12.9432 13.5283 12.9427 13.4255 12.9464C13.0079 12.9616 12.7392 13.2187 12.7062 13.6333C12.6971 13.7485 12.6998 13.8649 12.6998 13.9808C12.7 16.2148 12.7008 18.449 12.701 20.683C12.7013 22.3586 12.7 24.034 12.7018 25.7097C12.7025 26.3953 12.9378 26.612 13.6299 26.5778C13.6673 26.5761 13.7054 26.5761 13.7436 26.5761V29.7132H13.2482C12.8764 29.7132 12.5752 30.0144 12.5752 30.3862C12.5752 30.7579 12.8764 31.0591 13.2482 31.0591H13.3809C13.5016 31.0656 13.6224 31.0641 13.7436 31.0621V31.1889C13.7436 31.6749 14.1374 32.0688 14.6234 32.0688C15.1091 32.0688 15.5032 31.6749 15.5032 31.1889V31.0591H15.9778C16.3496 31.0591 16.6508 30.7579 16.6508 30.3862C16.6508 30.0144 16.3496 29.7132 15.9778 29.7132H15.5032V26.5798C15.5666 26.5845 15.627 26.5883 15.687 26.5878C16.3149 26.583 16.5561 26.3329 16.5688 25.704C16.5765 25.3253 16.5933 24.9458 16.6252 24.5683C16.7954 22.562 18.0983 21.0216 20.0637 20.5918C21.9242 20.1851 23.7752 20.3315 25.574 20.9346C26.8362 21.3579 27.8109 22.1694 28.4715 23.3427C29.0595 24.3875 29.2475 25.519 29.1898 26.6953C29.089 28.7519 28.605 30.7287 27.9048 32.6588C27.8272 32.8725 27.7254 32.9387 27.4973 32.9382C24.1041 32.9297 20.711 32.9322 17.3176 32.9322C17.1338 32.9322 16.95 32.9322 16.6775 32.9322C17.077 33.3404 17.4194 33.6783 17.7461 34.0302C17.8939 34.1893 18.0512 34.2477 18.2697 34.2475C25.2985 34.24 32.3274 34.2391 39.3559 34.2371C39.698 34.2371 40.0403 34.2371 40.393 34.2371C40.1114 33.4511 39.3985 32.9362 38.6091 32.931ZM14.6846 24.5071C14.0886 24.5071 13.6054 24.0239 13.6054 23.4279C13.6054 22.8317 14.0886 22.3487 14.6846 22.3487C15.2805 22.3487 15.7638 22.832 15.7638 23.4279C15.764 24.0239 15.2808 24.5071 14.6846 24.5071ZM29.17 20.7734C28.7548 20.7734 28.4182 20.4367 28.4182 20.0216C28.4182 19.6065 28.7548 19.2699 29.17 19.2699C29.5851 19.2699 29.9217 19.6065 29.9217 20.0216C29.9217 20.4367 29.5854 20.7734 29.17 20.7734ZM31.3306 17.1394C31.7458 17.1394 32.0824 17.476 32.0824 17.8912C32.0824 18.3063 31.7458 18.6429 31.3306 18.6429C30.9155 18.6429 30.5789 18.3063 30.5789 17.8912C30.5786 17.476 30.9152 17.1394 31.3306 17.1394ZM32.0824 25.9475C31.6672 25.9475 31.3306 25.6108 31.3306 25.1957C31.3306 24.7806 31.6672 24.444 32.0824 24.444C32.4975 24.444 32.8341 24.7806 32.8341 25.1957C32.8341 25.6108 32.4975 25.9475 32.0824 25.9475ZM34.7258 26.1201C34.3106 26.1201 33.974 25.7835 33.974 25.3684C33.974 24.9532 34.3106 24.6166 34.7258 24.6166C35.1409 24.6166 35.4775 24.9532 35.4775 25.3684C35.4775 25.7835 35.1409 26.1201 34.7258 26.1201ZM33.1341 23.7071C31.8399 23.7071 30.7907 22.6578 30.7907 21.3636C30.7907 20.0694 31.8399 19.0202 33.1341 19.0202C34.4283 19.0202 35.4775 20.0694 35.4775 21.3636C35.4775 22.6578 34.4283 23.7071 33.1341 23.7071Z" fill="white"/>
<path d="M33.1341 22.8693C33.9657 22.8693 34.6399 22.1952 34.6399 21.3636C34.6399 20.532 33.9657 19.8578 33.1341 19.8578C32.3026 19.8578 31.6284 20.532 31.6284 21.3636C31.6284 22.1952 32.3026 22.8693 33.1341 22.8693Z" fill="white"/>
<path d="M39.9898 27.0093C39.4528 27.0093 39.0176 26.5741 39.0176 26.0371V17.1538C39.0176 16.6168 39.4528 16.1816 39.9898 16.1816C40.5268 16.1816 40.962 16.6168 40.962 17.1538V26.0371C40.9617 26.5741 40.5265 27.0093 39.9898 27.0093Z" fill="white"/>
</svg>
